<mxfile host="Electron" modified="2024-06-04T16:37:00.544Z" agent="Mozilla/5.0 (Windows NT 10.0; Win64; x64) AppleWebKit/537.36 (KHTML, like Gecko) draw.io/21.2.8 Chrome/112.0.5615.165 Electron/24.2.0 Safari/537.36" etag="Cc1WLOECnuYDHGu3yzjF" version="21.2.8" type="device">
  <diagram name="Page-1" id="48slsOrBtl-edNU488xh">
    <mxGraphModel dx="3418" dy="2543" grid="1" gridSize="10" guides="1" tooltips="1" connect="1" arrows="1" fold="1" page="1" pageScale="1" pageWidth="827" pageHeight="1169" math="0" shadow="0">
      <root>
        <mxCell id="0" />
        <mxCell id="1" parent="0" />
        <mxCell id="DFOY4-Ip_yTvPPJxsnzs-1" value="Candle" style="swimlane;fontStyle=0;childLayout=stackLayout;horizontal=1;startSize=30;horizontalStack=0;resizeParent=1;resizeParentMax=0;resizeLast=0;collapsible=1;marginBottom=0;whiteSpace=wrap;html=1;" vertex="1" parent="1">
          <mxGeometry x="-190" y="1250" width="130" height="200" as="geometry" />
        </mxCell>
        <mxCell id="DFOY4-Ip_yTvPPJxsnzs-2" value="&#39;symbol&#39;,&#xa;&#39;dateTime&#39;,&#xa;&#39;startPrice&#39;,&#xa;&#39;highestPrice&#39;,&#xa;&#39;lowestPrice&#39;,&#xa;&#39;endPrice&#39;,&#xa;&#39;volume&#39;,&#xa;&#39;source&#39;,&#xa;&#39;candleType&#39;,&#xa;&#39;currency&#39;," style="text;strokeColor=none;fillColor=none;align=left;verticalAlign=middle;spacingLeft=4;spacingRight=4;overflow=hidden;points=[[0,0.5],[1,0.5]];portConstraint=eastwest;rotatable=0;whiteSpace=wrap;html=1;" vertex="1" parent="DFOY4-Ip_yTvPPJxsnzs-1">
          <mxGeometry y="30" width="130" height="170" as="geometry" />
        </mxCell>
        <mxCell id="DFOY4-Ip_yTvPPJxsnzs-5" value="Exchange" style="swimlane;fontStyle=0;childLayout=stackLayout;horizontal=1;startSize=30;horizontalStack=0;resizeParent=1;resizeParentMax=0;resizeLast=0;collapsible=1;marginBottom=0;whiteSpace=wrap;html=1;" vertex="1" parent="1">
          <mxGeometry x="-540" y="1120" width="140" height="490" as="geometry" />
        </mxCell>
        <mxCell id="DFOY4-Ip_yTvPPJxsnzs-7" value="&lt;div style=&quot;font-family: Consolas, &amp;quot;Courier New&amp;quot;, monospace; font-size: 14px; line-height: 19px;&quot;&gt;&lt;div style=&quot;&quot;&gt;&lt;div style=&quot;&quot;&gt;&#39;symbol&#39;,&lt;/div&gt;&lt;div style=&quot;&quot;&gt;&#39;ticker&#39;,&lt;/div&gt;&lt;div style=&quot;&quot;&gt;&#39;code&#39;,&lt;/div&gt;&lt;div style=&quot;&quot;&gt;&#39;isin&#39;,&lt;/div&gt;&lt;div style=&quot;&quot;&gt;&#39;type&#39;,&lt;/div&gt;&lt;div style=&quot;&quot;&gt;&#39;wpkn&#39;,&lt;/div&gt;&lt;div style=&quot;&quot;&gt;&#39;name&#39;,&lt;/div&gt;&lt;div style=&quot;&quot;&gt;&#39;nameLong&#39;,&lt;/div&gt;&lt;div style=&quot;&quot;&gt;&#39;region&#39;,&lt;/div&gt;&lt;div style=&quot;&quot;&gt;&#39;country&#39;,&lt;/div&gt;&lt;div style=&quot;&quot;&gt;&#39;currency&#39;,&lt;/div&gt;&lt;div style=&quot;&quot;&gt;&#39;figi&#39;,&lt;/div&gt;&lt;div style=&quot;&quot;&gt;&#39;cik&#39;,&lt;/div&gt;&lt;div style=&quot;&quot;&gt;&#39;lei&#39;,&lt;/div&gt;&lt;div style=&quot;&quot;&gt;&#39;source&#39;,&lt;/div&gt;&lt;div style=&quot;&quot;&gt;&#39;operatingMIC&#39;,&lt;/div&gt;&lt;div style=&quot;&quot;&gt;&#39;codeExchange&#39;,&lt;/div&gt;&lt;div style=&quot;&quot;&gt;&#39;virtualExchange&#39;,&lt;/div&gt;&lt;div style=&quot;&quot;&gt;&#39;nameExchange&#39;,&lt;/div&gt;&lt;div style=&quot;&quot;&gt;&#39;isArtificialExchange&#39;,&lt;/div&gt;&lt;div style=&quot;&quot;&gt;&#39;segmentExchange&#39;,&lt;/div&gt;&lt;div style=&quot;&quot;&gt;&#39;segmentNameExchange&#39;,&lt;/div&gt;&lt;/div&gt;&lt;/div&gt;" style="text;strokeColor=none;fillColor=none;align=left;verticalAlign=middle;spacingLeft=4;spacingRight=4;overflow=hidden;points=[[0,0.5],[1,0.5]];portConstraint=eastwest;rotatable=0;whiteSpace=wrap;html=1;" vertex="1" parent="DFOY4-Ip_yTvPPJxsnzs-5">
          <mxGeometry y="30" width="140" height="460" as="geometry" />
        </mxCell>
        <mxCell id="DFOY4-Ip_yTvPPJxsnzs-9" value="metadata" style="swimlane;fontStyle=0;childLayout=stackLayout;horizontal=1;startSize=30;horizontalStack=0;resizeParent=1;resizeParentMax=0;resizeLast=0;collapsible=1;marginBottom=0;whiteSpace=wrap;html=1;" vertex="1" parent="1">
          <mxGeometry x="-240" y="1650" width="180" height="930" as="geometry" />
        </mxCell>
        <mxCell id="DFOY4-Ip_yTvPPJxsnzs-10" value="&lt;div&gt;&#39;symbol&#39;,&lt;/div&gt;&lt;div&gt;&#39;source&#39;,&lt;/div&gt;&lt;div&gt;&#39;ticker&#39;,&lt;/div&gt;&lt;div&gt;&#39;code&#39;,&lt;/div&gt;&lt;div&gt;&#39;type&#39;,&lt;/div&gt;&lt;div&gt;&#39;name&#39;,&lt;/div&gt;&lt;div&gt;&#39;exchange&#39;,&lt;/div&gt;&lt;div&gt;&#39;currency&#39;,&lt;/div&gt;&lt;div&gt;&#39;countryName&#39;,&lt;/div&gt;&lt;div&gt;&#39;countryIso&#39;,&lt;/div&gt;&lt;div&gt;&#39;sector&#39;,&lt;/div&gt;&lt;div&gt;&#39;industry&#39;,&lt;/div&gt;&lt;div&gt;&#39;description&#39;,&lt;/div&gt;&lt;div&gt;&#39;isin&#39;,&lt;/div&gt;&lt;div&gt;&#39;primaryTicker&#39;,&lt;/div&gt;&lt;div&gt;&#39;fullTimeEmployees&#39;,&lt;/div&gt;&lt;div&gt;&#39;updatedAt&#39;,&lt;/div&gt;&lt;div&gt;&#39;cusip&#39;,&lt;/div&gt;&lt;div&gt;&#39;logoURL&#39;,&lt;/div&gt;&lt;div&gt;&#39;cik&#39;,&lt;/div&gt;&lt;div&gt;&#39;employerIdNumber&#39;,&lt;/div&gt;&lt;div&gt;&#39;fiscalYearEnd&#39;,&lt;/div&gt;&lt;div&gt;&#39;ipoDate&#39;,&lt;/div&gt;&lt;div&gt;&#39;validUntil&#39;,&lt;/div&gt;&lt;div&gt;&#39;internationalDomestic&#39;,&lt;/div&gt;&lt;div&gt;&#39;gicSector&#39;,&lt;/div&gt;&lt;div&gt;&#39;gicGroup&#39;,&lt;/div&gt;&lt;div&gt;&#39;gicIndustry&#39;,&lt;/div&gt;&lt;div&gt;&#39;gicSubIndustry&#39;,&lt;/div&gt;&lt;div&gt;&#39;addressDetails&#39;,&lt;/div&gt;&lt;div&gt;&#39;phone&#39;,&lt;/div&gt;&lt;div&gt;&#39;webUrl&#39;,&lt;/div&gt;&lt;div&gt;&#39;category&#39;,&lt;/div&gt;&lt;div&gt;&#39;fundSummary&#39;,&lt;/div&gt;&lt;div&gt;&#39;fundFamily&#39;,&lt;/div&gt;&lt;div&gt;&#39;fundFiscalYearEnd&#39;,&lt;/div&gt;&lt;div&gt;&#39;officers&#39;,&lt;/div&gt;&lt;div&gt;&#39;exchangeMarket&#39;,&lt;/div&gt;&lt;div&gt;&#39;fundCategory&#39;,&lt;/div&gt;&lt;div&gt;&#39;fundStyle&#39;,&lt;/div&gt;&lt;div&gt;&#39;homeCategory&#39;,&lt;/div&gt;&lt;div&gt;&#39;isDelisted&#39;,&lt;/div&gt;&lt;div&gt;&#39;listings&#39;,&lt;/div&gt;&lt;div&gt;&#39;marketCapitalization&#39;,&lt;/div&gt;&lt;div&gt;&#39;statistics&#39;,&lt;/div&gt;&lt;div&gt;&#39;highlights&#39;,&lt;/div&gt;&lt;div&gt;&#39;technicals&#39;,&lt;/div&gt;&lt;div&gt;&#39;valuation&#39;,&lt;/div&gt;&lt;div&gt;&#39;sharesStatistics&#39;,&lt;/div&gt;&lt;div&gt;&#39;analystRatings&#39;,&lt;/div&gt;&lt;div&gt;&#39;splitsDividends&#39;,&lt;/div&gt;&lt;div&gt;&#39;dividends&#39;,&lt;/div&gt;&lt;div&gt;&#39;splits&#39;,&lt;/div&gt;&lt;div&gt;&#39;earnings&#39;,&lt;/div&gt;&lt;div&gt;&#39;financials&#39;,&lt;/div&gt;&lt;div&gt;&#39;insiderTransactions&#39;,&lt;/div&gt;&lt;div&gt;&#39;holders&#39;,&lt;/div&gt;&lt;div&gt;&#39;outstandingShares&#39;,&lt;/div&gt;&lt;div&gt;&#39;indexComponents&#39;,&lt;/div&gt;&lt;div&gt;&#39;exchangeTradedFundDetails&#39;,&lt;/div&gt;&lt;div&gt;&#39;mutualFundDetails&#39;&lt;/div&gt;" style="text;strokeColor=none;fillColor=none;align=left;verticalAlign=middle;spacingLeft=4;spacingRight=4;overflow=hidden;points=[[0,0.5],[1,0.5]];portConstraint=eastwest;rotatable=0;whiteSpace=wrap;html=1;" vertex="1" parent="DFOY4-Ip_yTvPPJxsnzs-9">
          <mxGeometry y="30" width="180" height="900" as="geometry" />
        </mxCell>
        <mxCell id="DFOY4-Ip_yTvPPJxsnzs-16" value="financial instrument types" style="swimlane;fontStyle=0;childLayout=stackLayout;horizontal=1;startSize=30;horizontalStack=0;resizeParent=1;resizeParentMax=0;resizeLast=0;collapsible=1;marginBottom=0;whiteSpace=wrap;html=1;" vertex="1" parent="1">
          <mxGeometry x="-800" y="1490" width="200" height="190" as="geometry" />
        </mxCell>
        <mxCell id="DFOY4-Ip_yTvPPJxsnzs-18" value="&lt;div&gt;Stock&amp;nbsp;&lt;/div&gt;&lt;div&gt;Cryptocurrency&amp;nbsp;&lt;/div&gt;&lt;div&gt;Exchange traded commodity&amp;nbsp;&lt;/div&gt;&lt;div&gt;Exchange traded fund&amp;nbsp;&lt;/div&gt;&lt;div&gt;Fund&amp;nbsp;&lt;/div&gt;&lt;div&gt;Index&amp;nbsp;&lt;/div&gt;&lt;div&gt;Commodity&amp;nbsp;&lt;/div&gt;&lt;div&gt;Mutual fund&amp;nbsp;&lt;/div&gt;" style="text;strokeColor=none;fillColor=none;align=left;verticalAlign=middle;spacingLeft=4;spacingRight=4;overflow=hidden;points=[[0,0.5],[1,0.5]];portConstraint=eastwest;rotatable=0;whiteSpace=wrap;html=1;" vertex="1" parent="DFOY4-Ip_yTvPPJxsnzs-16">
          <mxGeometry y="30" width="200" height="160" as="geometry" />
        </mxCell>
        <mxCell id="DFOY4-Ip_yTvPPJxsnzs-23" value="ExchangeTradedFundDetails" style="swimlane;fontStyle=0;childLayout=stackLayout;horizontal=1;startSize=30;horizontalStack=0;resizeParent=1;resizeParentMax=0;resizeLast=0;collapsible=1;marginBottom=0;whiteSpace=wrap;html=1;" vertex="1" parent="1">
          <mxGeometry x="300" y="230" width="220" height="380" as="geometry" />
        </mxCell>
        <mxCell id="DFOY4-Ip_yTvPPJxsnzs-24" value="&lt;div&gt;&#39;domicile&#39;,&lt;/div&gt;&lt;div&gt;&#39;yield&#39;,&lt;/div&gt;&lt;div&gt;&#39;companyName&#39;,&lt;/div&gt;&lt;div&gt;&#39;companyURL&#39;,&lt;/div&gt;&lt;div&gt;&#39;etfUrl&#39;,&lt;/div&gt;&lt;div&gt;&#39;indexName&#39;,&lt;/div&gt;&lt;div&gt;&#39;dividendPayingFrequency&#39;,&lt;/div&gt;&lt;div&gt;&#39;maxAnnualManagementCharge&#39;,&lt;/div&gt;&lt;div&gt;&#39;ongoingCharge&#39;,&lt;/div&gt;&lt;div&gt;&#39;dateOngoingCharge&#39;,&lt;/div&gt;&lt;div&gt;&#39;netExpenseRatio&#39;,&lt;/div&gt;&lt;div&gt;&#39;annualHoldingsTurnover&#39;,&lt;/div&gt;&lt;div&gt;&#39;totalAssets&#39;,&lt;/div&gt;&lt;div&gt;&#39;holdingsCount&#39;,&lt;/div&gt;&lt;div&gt;&#39;performance&#39;,&lt;/div&gt;&lt;div&gt;&#39;fixedIncome&#39;,&lt;/div&gt;&lt;div&gt;&#39;inceptionDate&#39;,&lt;/div&gt;&lt;div&gt;&#39;morningStar&#39;,&lt;/div&gt;&lt;div&gt;&#39;assetAllocation&#39;,&lt;/div&gt;&lt;div&gt;&#39;valuationsGrowth&#39;,&lt;/div&gt;&lt;div&gt;&#39;sectorWeights&#39;,&lt;/div&gt;&lt;div&gt;&#39;worldRegions&#39;,&lt;/div&gt;&lt;div&gt;&#39;top10Holdings&#39;,&lt;/div&gt;&lt;div&gt;&#39;holdings&#39;&lt;/div&gt;" style="text;strokeColor=none;fillColor=none;align=left;verticalAlign=middle;spacingLeft=4;spacingRight=4;overflow=hidden;points=[[0,0.5],[1,0.5]];portConstraint=eastwest;rotatable=0;whiteSpace=wrap;html=1;" vertex="1" parent="DFOY4-Ip_yTvPPJxsnzs-23">
          <mxGeometry y="30" width="220" height="350" as="geometry" />
        </mxCell>
        <mxCell id="DFOY4-Ip_yTvPPJxsnzs-27" value="Performance" style="swimlane;fontStyle=0;childLayout=stackLayout;horizontal=1;startSize=30;horizontalStack=0;resizeParent=1;resizeParentMax=0;resizeLast=0;collapsible=1;marginBottom=0;whiteSpace=wrap;html=1;" vertex="1" parent="1">
          <mxGeometry x="730" y="-280" width="140" height="150" as="geometry" />
        </mxCell>
        <mxCell id="DFOY4-Ip_yTvPPJxsnzs-28" value="&lt;div&gt;&#39;1YVolatility&#39;,&lt;/div&gt;&lt;div&gt;&#39;3YVolatility&#39;,&lt;/div&gt;&lt;div&gt;&#39;3YExpReturn&#39;,&lt;/div&gt;&lt;div&gt;&#39;3YSharpRatio&#39;,&lt;/div&gt;&lt;div&gt;&#39;returnsYtd&#39;,&lt;/div&gt;&lt;div&gt;&#39;returns1Y&#39;,&lt;/div&gt;&lt;div&gt;&#39;returns3Y&#39;,&lt;/div&gt;&lt;div&gt;&#39;returns5Y&#39;,&lt;/div&gt;&lt;div&gt;&#39;returns10Y&#39;&lt;/div&gt;" style="text;strokeColor=none;fillColor=none;align=left;verticalAlign=middle;spacingLeft=4;spacingRight=4;overflow=hidden;points=[[0,0.5],[1,0.5]];portConstraint=eastwest;rotatable=0;whiteSpace=wrap;html=1;" vertex="1" parent="DFOY4-Ip_yTvPPJxsnzs-27">
          <mxGeometry y="30" width="140" height="120" as="geometry" />
        </mxCell>
        <mxCell id="DFOY4-Ip_yTvPPJxsnzs-31" value="fixedIncome[0]" style="swimlane;fontStyle=0;childLayout=stackLayout;horizontal=1;startSize=30;horizontalStack=0;resizeParent=1;resizeParentMax=0;resizeLast=0;collapsible=1;marginBottom=0;whiteSpace=wrap;html=1;" vertex="1" parent="1">
          <mxGeometry x="730" y="-115" width="140" height="100" as="geometry" />
        </mxCell>
        <mxCell id="DFOY4-Ip_yTvPPJxsnzs-32" value="&#39;name&#39;, &#xa;&#39;fundPercent&#39;, &#xa;&#39;relativeToCategory&#39;" style="text;strokeColor=none;fillColor=none;align=left;verticalAlign=middle;spacingLeft=4;spacingRight=4;overflow=hidden;points=[[0,0.5],[1,0.5]];portConstraint=eastwest;rotatable=0;whiteSpace=wrap;html=1;" vertex="1" parent="DFOY4-Ip_yTvPPJxsnzs-31">
          <mxGeometry y="30" width="140" height="70" as="geometry" />
        </mxCell>
        <mxCell id="DFOY4-Ip_yTvPPJxsnzs-35" value="morningStar" style="swimlane;fontStyle=0;childLayout=stackLayout;horizontal=1;startSize=30;horizontalStack=0;resizeParent=1;resizeParentMax=0;resizeLast=0;collapsible=1;marginBottom=0;whiteSpace=wrap;html=1;" vertex="1" parent="1">
          <mxGeometry x="730" y="-5" width="140" height="100" as="geometry" />
        </mxCell>
        <mxCell id="DFOY4-Ip_yTvPPJxsnzs-38" value="&lt;div&gt;&#39;ratio&#39;,&amp;nbsp;&lt;/div&gt;&lt;div&gt;&#39;categoryBenchmark&#39;,&amp;nbsp;&lt;/div&gt;&lt;div&gt;&#39;sustainabilityRatio&#39;&lt;/div&gt;" style="text;strokeColor=none;fillColor=none;align=left;verticalAlign=middle;spacingLeft=4;spacingRight=4;overflow=hidden;points=[[0,0.5],[1,0.5]];portConstraint=eastwest;rotatable=0;whiteSpace=wrap;html=1;" vertex="1" parent="DFOY4-Ip_yTvPPJxsnzs-35">
          <mxGeometry y="30" width="140" height="70" as="geometry" />
        </mxCell>
        <mxCell id="DFOY4-Ip_yTvPPJxsnzs-39" value="assetAllocation[0]" style="swimlane;fontStyle=0;childLayout=stackLayout;horizontal=1;startSize=30;horizontalStack=0;resizeParent=1;resizeParentMax=0;resizeLast=0;collapsible=1;marginBottom=0;whiteSpace=wrap;html=1;" vertex="1" parent="1">
          <mxGeometry x="730" y="105" width="140" height="120" as="geometry" />
        </mxCell>
        <mxCell id="DFOY4-Ip_yTvPPJxsnzs-40" value="&lt;div&gt;&#39;name&#39;,&lt;/div&gt;&lt;div&gt;&#39;category&#39;,&lt;/div&gt;&lt;div&gt;&#39;longPercent&#39;,&lt;/div&gt;&lt;div&gt;&#39;shortPercent&#39;,&lt;/div&gt;&lt;div&gt;&#39;netAssetsPercent&#39;&lt;/div&gt;" style="text;strokeColor=none;fillColor=none;align=left;verticalAlign=middle;spacingLeft=4;spacingRight=4;overflow=hidden;points=[[0,0.5],[1,0.5]];portConstraint=eastwest;rotatable=0;whiteSpace=wrap;html=1;" vertex="1" parent="DFOY4-Ip_yTvPPJxsnzs-39">
          <mxGeometry y="30" width="140" height="90" as="geometry" />
        </mxCell>
        <mxCell id="DFOY4-Ip_yTvPPJxsnzs-42" value="valuationsGrowth" style="swimlane;fontStyle=0;childLayout=stackLayout;horizontal=1;startSize=30;horizontalStack=0;resizeParent=1;resizeParentMax=0;resizeLast=0;collapsible=1;marginBottom=0;whiteSpace=wrap;html=1;" vertex="1" parent="1">
          <mxGeometry x="730" y="245" width="160" height="110" as="geometry" />
        </mxCell>
        <mxCell id="DFOY4-Ip_yTvPPJxsnzs-43" value="&lt;div&gt;&#39;growthRatesPortfolio&#39;,&lt;/div&gt;&lt;div&gt;&#39;growthRatesToCategory&#39;,&lt;/div&gt;&lt;div&gt;&#39;valuationsRatesPortfolio&#39;,&lt;/div&gt;&lt;div&gt;&#39;valuationsRatesToCategory&#39;&lt;/div&gt;" style="text;strokeColor=none;fillColor=none;align=left;verticalAlign=middle;spacingLeft=4;spacingRight=4;overflow=hidden;points=[[0,0.5],[1,0.5]];portConstraint=eastwest;rotatable=0;whiteSpace=wrap;html=1;" vertex="1" parent="DFOY4-Ip_yTvPPJxsnzs-42">
          <mxGeometry y="30" width="160" height="80" as="geometry" />
        </mxCell>
        <mxCell id="DFOY4-Ip_yTvPPJxsnzs-44" value="&lt;div style=&quot;border-color: var(--border-color); text-align: left;&quot;&gt;&#39;growthRatesPortfolio&#39;,&lt;/div&gt;" style="swimlane;fontStyle=0;childLayout=stackLayout;horizontal=1;startSize=30;horizontalStack=0;resizeParent=1;resizeParentMax=0;resizeLast=0;collapsible=1;marginBottom=0;whiteSpace=wrap;html=1;" vertex="1" parent="1">
          <mxGeometry x="1030" y="-30" width="200" height="120" as="geometry" />
        </mxCell>
        <mxCell id="DFOY4-Ip_yTvPPJxsnzs-45" value="&lt;div&gt;&#39;salesGrowth&#39;,&lt;/div&gt;&lt;div&gt;&#39;cashFlowGrowth&#39;,&lt;/div&gt;&lt;div&gt;&#39;bookValueGrowth&#39;,&lt;/div&gt;&lt;div&gt;&#39;historicalEarningsGrowth&#39;,&lt;/div&gt;&lt;div&gt;&#39;longTermProjectedEarningsGrowth&#39;&lt;/div&gt;" style="text;strokeColor=none;fillColor=none;align=left;verticalAlign=middle;spacingLeft=4;spacingRight=4;overflow=hidden;points=[[0,0.5],[1,0.5]];portConstraint=eastwest;rotatable=0;whiteSpace=wrap;html=1;" vertex="1" parent="DFOY4-Ip_yTvPPJxsnzs-44">
          <mxGeometry y="30" width="200" height="90" as="geometry" />
        </mxCell>
        <mxCell id="DFOY4-Ip_yTvPPJxsnzs-48" value="&lt;div style=&quot;border-color: var(--border-color); text-align: left;&quot;&gt;growthRatesToCategory&lt;br&gt;&lt;/div&gt;" style="swimlane;fontStyle=0;childLayout=stackLayout;horizontal=1;startSize=30;horizontalStack=0;resizeParent=1;resizeParentMax=0;resizeLast=0;collapsible=1;marginBottom=0;whiteSpace=wrap;html=1;" vertex="1" parent="1">
          <mxGeometry x="1030" y="115" width="200" height="120" as="geometry" />
        </mxCell>
        <mxCell id="DFOY4-Ip_yTvPPJxsnzs-49" value="&lt;div&gt;&#39;salesGrowth&#39;,&lt;/div&gt;&lt;div&gt;&#39;cashFlowGrowth&#39;,&lt;/div&gt;&lt;div&gt;&#39;bookValueGrowth&#39;,&lt;/div&gt;&lt;div&gt;&#39;historicalEarningsGrowth&#39;,&lt;/div&gt;&lt;div&gt;&#39;longTermProjectedEarningsGrowth&#39;&lt;/div&gt;" style="text;strokeColor=none;fillColor=none;align=left;verticalAlign=middle;spacingLeft=4;spacingRight=4;overflow=hidden;points=[[0,0.5],[1,0.5]];portConstraint=eastwest;rotatable=0;whiteSpace=wrap;html=1;" vertex="1" parent="DFOY4-Ip_yTvPPJxsnzs-48">
          <mxGeometry y="30" width="200" height="90" as="geometry" />
        </mxCell>
        <mxCell id="DFOY4-Ip_yTvPPJxsnzs-50" style="edgeStyle=orthogonalEdgeStyle;rounded=0;orthogonalLoop=1;jettySize=auto;html=1;" edge="1" parent="1" source="DFOY4-Ip_yTvPPJxsnzs-43" target="DFOY4-Ip_yTvPPJxsnzs-49">
          <mxGeometry relative="1" as="geometry" />
        </mxCell>
        <mxCell id="DFOY4-Ip_yTvPPJxsnzs-51" style="edgeStyle=orthogonalEdgeStyle;rounded=0;orthogonalLoop=1;jettySize=auto;html=1;entryX=-0.014;entryY=0.266;entryDx=0;entryDy=0;entryPerimeter=0;" edge="1" parent="1" source="DFOY4-Ip_yTvPPJxsnzs-43" target="DFOY4-Ip_yTvPPJxsnzs-45">
          <mxGeometry relative="1" as="geometry" />
        </mxCell>
        <mxCell id="DFOY4-Ip_yTvPPJxsnzs-52" value="&lt;div style=&quot;border-color: var(--border-color); text-align: left;&quot;&gt;valuationsRatesPortfolio&lt;br&gt;&lt;/div&gt;" style="swimlane;fontStyle=0;childLayout=stackLayout;horizontal=1;startSize=30;horizontalStack=0;resizeParent=1;resizeParentMax=0;resizeLast=0;collapsible=1;marginBottom=0;whiteSpace=wrap;html=1;" vertex="1" parent="1">
          <mxGeometry x="1030" y="279" width="200" height="110" as="geometry" />
        </mxCell>
        <mxCell id="DFOY4-Ip_yTvPPJxsnzs-53" value="&lt;div&gt;&#39;priceBook&#39;,&lt;/div&gt;&lt;div&gt;&#39;priceSales&#39;,&lt;/div&gt;&lt;div&gt;&#39;priceCashFlow&#39;,&lt;/div&gt;&lt;div&gt;&#39;dividendYieldFactor&#39;,&lt;/div&gt;&lt;div&gt;&#39;priceProspectiveEarnings&#39;&lt;/div&gt;" style="text;strokeColor=none;fillColor=none;align=left;verticalAlign=middle;spacingLeft=4;spacingRight=4;overflow=hidden;points=[[0,0.5],[1,0.5]];portConstraint=eastwest;rotatable=0;whiteSpace=wrap;html=1;" vertex="1" parent="DFOY4-Ip_yTvPPJxsnzs-52">
          <mxGeometry y="30" width="200" height="80" as="geometry" />
        </mxCell>
        <mxCell id="DFOY4-Ip_yTvPPJxsnzs-54" style="edgeStyle=orthogonalEdgeStyle;rounded=0;orthogonalLoop=1;jettySize=auto;html=1;entryX=0;entryY=0.5;entryDx=0;entryDy=0;" edge="1" parent="1" source="DFOY4-Ip_yTvPPJxsnzs-43" target="DFOY4-Ip_yTvPPJxsnzs-53">
          <mxGeometry relative="1" as="geometry" />
        </mxCell>
        <mxCell id="DFOY4-Ip_yTvPPJxsnzs-55" value="&lt;div style=&quot;border-color: var(--border-color); text-align: left;&quot;&gt;valuationsRatesToCategory&lt;br&gt;&lt;/div&gt;" style="swimlane;fontStyle=0;childLayout=stackLayout;horizontal=1;startSize=30;horizontalStack=0;resizeParent=1;resizeParentMax=0;resizeLast=0;collapsible=1;marginBottom=0;whiteSpace=wrap;html=1;" vertex="1" parent="1">
          <mxGeometry x="1030" y="410" width="200" height="120" as="geometry" />
        </mxCell>
        <mxCell id="DFOY4-Ip_yTvPPJxsnzs-56" value="&lt;div&gt;&#39;priceBook&#39;,&lt;/div&gt;&lt;div&gt;&#39;priceSales&#39;,&lt;/div&gt;&lt;div&gt;&#39;priceCashFlow&#39;,&lt;/div&gt;&lt;div&gt;&#39;dividendYieldFactor&#39;,&lt;/div&gt;&lt;div&gt;&#39;priceProspectiveEarnings&#39;&lt;/div&gt;" style="text;strokeColor=none;fillColor=none;align=left;verticalAlign=middle;spacingLeft=4;spacingRight=4;overflow=hidden;points=[[0,0.5],[1,0.5]];portConstraint=eastwest;rotatable=0;whiteSpace=wrap;html=1;" vertex="1" parent="DFOY4-Ip_yTvPPJxsnzs-55">
          <mxGeometry y="30" width="200" height="90" as="geometry" />
        </mxCell>
        <mxCell id="DFOY4-Ip_yTvPPJxsnzs-58" style="edgeStyle=orthogonalEdgeStyle;rounded=0;orthogonalLoop=1;jettySize=auto;html=1;entryX=-0.01;entryY=0.048;entryDx=0;entryDy=0;entryPerimeter=0;" edge="1" parent="1" source="DFOY4-Ip_yTvPPJxsnzs-43" target="DFOY4-Ip_yTvPPJxsnzs-56">
          <mxGeometry relative="1" as="geometry" />
        </mxCell>
        <mxCell id="DFOY4-Ip_yTvPPJxsnzs-59" value="sectorWeights[0]" style="swimlane;fontStyle=0;childLayout=stackLayout;horizontal=1;startSize=30;horizontalStack=0;resizeParent=1;resizeParentMax=0;resizeLast=0;collapsible=1;marginBottom=0;whiteSpace=wrap;html=1;" vertex="1" parent="1">
          <mxGeometry x="730" y="365" width="160" height="100" as="geometry" />
        </mxCell>
        <mxCell id="DFOY4-Ip_yTvPPJxsnzs-60" value="&lt;div&gt;&#39;name&#39;,&amp;nbsp;&lt;/div&gt;&lt;div&gt;&#39;category&#39;,&amp;nbsp;&lt;/div&gt;&lt;div&gt;&#39;equityPercent&#39;,&amp;nbsp;&lt;/div&gt;&lt;div&gt;&#39;relativeToCategory&#39;&lt;/div&gt;" style="text;strokeColor=none;fillColor=none;align=left;verticalAlign=middle;spacingLeft=4;spacingRight=4;overflow=hidden;points=[[0,0.5],[1,0.5]];portConstraint=eastwest;rotatable=0;whiteSpace=wrap;html=1;" vertex="1" parent="DFOY4-Ip_yTvPPJxsnzs-59">
          <mxGeometry y="30" width="160" height="70" as="geometry" />
        </mxCell>
        <mxCell id="DFOY4-Ip_yTvPPJxsnzs-63" value="top10Holdings[0]" style="swimlane;fontStyle=0;childLayout=stackLayout;horizontal=1;startSize=30;horizontalStack=0;resizeParent=1;resizeParentMax=0;resizeLast=0;collapsible=1;marginBottom=0;whiteSpace=wrap;html=1;" vertex="1" parent="1">
          <mxGeometry x="730" y="485" width="120" height="140" as="geometry" />
        </mxCell>
        <mxCell id="DFOY4-Ip_yTvPPJxsnzs-64" value="&lt;div&gt;&#39;name&#39;,&lt;/div&gt;&lt;div&gt;&#39;region&#39;,&lt;/div&gt;&lt;div&gt;&#39;sector&#39;,&lt;/div&gt;&lt;div&gt;&#39;country&#39;,&lt;/div&gt;&lt;div&gt;&#39;assetsPercent&#39;,&lt;/div&gt;&lt;div&gt;&#39;exchange&#39;,&lt;/div&gt;&lt;div&gt;&#39;industry&#39;&lt;/div&gt;" style="text;strokeColor=none;fillColor=none;align=left;verticalAlign=middle;spacingLeft=4;spacingRight=4;overflow=hidden;points=[[0,0.5],[1,0.5]];portConstraint=eastwest;rotatable=0;whiteSpace=wrap;html=1;" vertex="1" parent="DFOY4-Ip_yTvPPJxsnzs-63">
          <mxGeometry y="30" width="120" height="110" as="geometry" />
        </mxCell>
        <mxCell id="DFOY4-Ip_yTvPPJxsnzs-65" value="holdings[0]" style="swimlane;fontStyle=0;childLayout=stackLayout;horizontal=1;startSize=30;horizontalStack=0;resizeParent=1;resizeParentMax=0;resizeLast=0;collapsible=1;marginBottom=0;whiteSpace=wrap;html=1;" vertex="1" parent="1">
          <mxGeometry x="730" y="640" width="130" height="150" as="geometry" />
        </mxCell>
        <mxCell id="DFOY4-Ip_yTvPPJxsnzs-66" value="&lt;div&gt;&#39;code&#39;,&lt;/div&gt;&lt;div&gt;&#39;name&#39;,&lt;/div&gt;&lt;div&gt;&#39;region&#39;,&lt;/div&gt;&lt;div&gt;&#39;sector&#39;,&lt;/div&gt;&lt;div&gt;&#39;country&#39;,&lt;/div&gt;&lt;div&gt;&#39;assetsPercent&#39;,&lt;/div&gt;&lt;div&gt;&#39;exchange&#39;,&lt;/div&gt;&lt;div&gt;&#39;industry&#39;&lt;/div&gt;" style="text;strokeColor=none;fillColor=none;align=left;verticalAlign=middle;spacingLeft=4;spacingRight=4;overflow=hidden;points=[[0,0.5],[1,0.5]];portConstraint=eastwest;rotatable=0;whiteSpace=wrap;html=1;" vertex="1" parent="DFOY4-Ip_yTvPPJxsnzs-65">
          <mxGeometry y="30" width="130" height="120" as="geometry" />
        </mxCell>
        <mxCell id="DFOY4-Ip_yTvPPJxsnzs-67" value="marketCapitalization" style="swimlane;fontStyle=0;childLayout=stackLayout;horizontal=1;startSize=30;horizontalStack=0;resizeParent=1;resizeParentMax=0;resizeLast=0;collapsible=1;marginBottom=0;whiteSpace=wrap;html=1;" vertex="1" parent="1">
          <mxGeometry x="300" y="759" width="120" height="120" as="geometry" />
        </mxCell>
        <mxCell id="DFOY4-Ip_yTvPPJxsnzs-68" value="&lt;div&gt;&#39;value&#39;,&amp;nbsp;&lt;/div&gt;&lt;div&gt;&#39;dominance&#39;,&amp;nbsp;&lt;/div&gt;&lt;div&gt;&#39;diluted&#39;,&amp;nbsp;&lt;/div&gt;&lt;div&gt;&#39;average&#39;,&amp;nbsp;&lt;/div&gt;&lt;div&gt;&#39;bucket&#39;&lt;/div&gt;" style="text;strokeColor=none;fillColor=none;align=left;verticalAlign=middle;spacingLeft=4;spacingRight=4;overflow=hidden;points=[[0,0.5],[1,0.5]];portConstraint=eastwest;rotatable=0;whiteSpace=wrap;html=1;" vertex="1" parent="DFOY4-Ip_yTvPPJxsnzs-67">
          <mxGeometry y="30" width="120" height="90" as="geometry" />
        </mxCell>
        <mxCell id="DFOY4-Ip_yTvPPJxsnzs-70" value="bucket" style="swimlane;fontStyle=0;childLayout=stackLayout;horizontal=1;startSize=30;horizontalStack=0;resizeParent=1;resizeParentMax=0;resizeLast=0;collapsible=1;marginBottom=0;whiteSpace=wrap;html=1;" vertex="1" parent="1">
          <mxGeometry x="450" y="639" width="120" height="120" as="geometry" />
        </mxCell>
        <mxCell id="DFOY4-Ip_yTvPPJxsnzs-71" value="&lt;div&gt;&#39;category&#39;,&lt;/div&gt;&lt;div&gt;&#39;size&#39;,&lt;/div&gt;&lt;div&gt;&#39;categoryAverage&#39;,&lt;/div&gt;&lt;div&gt;&#39;benchmark&#39;,&lt;/div&gt;&lt;div&gt;&#39;portfolioPercent&#39;,&lt;/div&gt;&lt;div&gt;&#39;value&#39;&lt;/div&gt;" style="text;strokeColor=none;fillColor=none;align=left;verticalAlign=middle;spacingLeft=4;spacingRight=4;overflow=hidden;points=[[0,0.5],[1,0.5]];portConstraint=eastwest;rotatable=0;whiteSpace=wrap;html=1;" vertex="1" parent="DFOY4-Ip_yTvPPJxsnzs-70">
          <mxGeometry y="30" width="120" height="90" as="geometry" />
        </mxCell>
        <mxCell id="DFOY4-Ip_yTvPPJxsnzs-117" style="edgeStyle=orthogonalEdgeStyle;rounded=0;orthogonalLoop=1;jettySize=auto;html=1;exitX=1;exitY=0.5;exitDx=0;exitDy=0;entryX=0.001;entryY=0.026;entryDx=0;entryDy=0;entryPerimeter=0;" edge="1" parent="1" source="DFOY4-Ip_yTvPPJxsnzs-24" target="DFOY4-Ip_yTvPPJxsnzs-28">
          <mxGeometry relative="1" as="geometry" />
        </mxCell>
        <mxCell id="DFOY4-Ip_yTvPPJxsnzs-118" style="edgeStyle=orthogonalEdgeStyle;rounded=0;orthogonalLoop=1;jettySize=auto;html=1;entryX=0.006;entryY=0.265;entryDx=0;entryDy=0;entryPerimeter=0;" edge="1" parent="1" source="DFOY4-Ip_yTvPPJxsnzs-24" target="DFOY4-Ip_yTvPPJxsnzs-32">
          <mxGeometry relative="1" as="geometry" />
        </mxCell>
        <mxCell id="DFOY4-Ip_yTvPPJxsnzs-127" style="edgeStyle=orthogonalEdgeStyle;rounded=0;orthogonalLoop=1;jettySize=auto;html=1;entryX=-0.009;entryY=0.348;entryDx=0;entryDy=0;entryPerimeter=0;" edge="1" parent="1" source="DFOY4-Ip_yTvPPJxsnzs-24" target="DFOY4-Ip_yTvPPJxsnzs-38">
          <mxGeometry relative="1" as="geometry" />
        </mxCell>
        <mxCell id="DFOY4-Ip_yTvPPJxsnzs-130" value="" style="group" vertex="1" connectable="0" parent="1">
          <mxGeometry x="300" y="840" width="760" height="3240" as="geometry" />
        </mxCell>
        <mxCell id="DFOY4-Ip_yTvPPJxsnzs-61" value="worldRegions[0]" style="swimlane;fontStyle=0;childLayout=stackLayout;horizontal=1;startSize=30;horizontalStack=0;resizeParent=1;resizeParentMax=0;resizeLast=0;collapsible=1;marginBottom=0;whiteSpace=wrap;html=1;" vertex="1" parent="DFOY4-Ip_yTvPPJxsnzs-130">
          <mxGeometry x="230" y="482.05479452054794" width="130" height="67.8082191780822" as="geometry" />
        </mxCell>
        <mxCell id="DFOY4-Ip_yTvPPJxsnzs-62" value="No data but []" style="text;strokeColor=none;fillColor=none;align=left;verticalAlign=middle;spacingLeft=4;spacingRight=4;overflow=hidden;points=[[0,0.5],[1,0.5]];portConstraint=eastwest;rotatable=0;whiteSpace=wrap;html=1;" vertex="1" parent="DFOY4-Ip_yTvPPJxsnzs-61">
          <mxGeometry y="30" width="130" height="37.80821917808219" as="geometry" />
        </mxCell>
        <mxCell id="DFOY4-Ip_yTvPPJxsnzs-96" value="mutualFundDetails" style="swimlane;fontStyle=0;childLayout=stackLayout;horizontal=1;startSize=30;horizontalStack=0;resizeParent=1;resizeParentMax=0;resizeLast=0;collapsible=1;marginBottom=0;whiteSpace=wrap;html=1;" vertex="1" parent="DFOY4-Ip_yTvPPJxsnzs-130">
          <mxGeometry y="141.78082191780823" width="140" height="380" as="geometry" />
        </mxCell>
        <mxCell id="DFOY4-Ip_yTvPPJxsnzs-97" value="&#39;domicile&#39;,&#xa;&#39;yield&#39;,&#xa;&#39;yieldYtd&#39;,              &#xa;&#39;yield1YearYtd&#39;,&#xa;&#39;yield3YearYtd&#39;,         &#xa;&#39;yield5YearYtd&#39;,&#xa;&#39;nav&#39;,                   &#xa;&#39;prevClosePrice&#39;,&#xa;&#39;updateDate&#39;,            &#xa;&#39;portfolioNetAssets&#39;,&#xa;&#39;shareClassNetAssets&#39;,   &#xa;&#39;expenseRatio&#39;,&#xa;&#39;expenseRatioDate&#39;,      &#xa;&#39;topCountries&#39;,&#xa;&#39;inceptionDate&#39;,         &#xa;&#39;morningStarRating&#39;,&#xa;&#39;morningStarRiskRating&#39;, &#xa;&#39;morningStarCategory&#39;,&#xa;&#39;assetAllocation&#39;,       &#xa;&#39;valueGrowth&#39;,&#xa;&#39;sectorWeights&#39;,         &#xa;&#39;worldRegions&#39;,&#xa;&#39;topHoldings&#39;" style="text;strokeColor=none;fillColor=none;align=left;verticalAlign=middle;spacingLeft=4;spacingRight=4;overflow=hidden;points=[[0,0.5],[1,0.5]];portConstraint=eastwest;rotatable=0;whiteSpace=wrap;html=1;" vertex="1" parent="DFOY4-Ip_yTvPPJxsnzs-96">
          <mxGeometry y="30" width="140" height="350" as="geometry" />
        </mxCell>
        <mxCell id="DFOY4-Ip_yTvPPJxsnzs-100" value="assetAllocation[0]" style="swimlane;fontStyle=0;childLayout=stackLayout;horizontal=1;startSize=30;horizontalStack=0;resizeParent=1;resizeParentMax=0;resizeLast=0;collapsible=1;marginBottom=0;whiteSpace=wrap;html=1;" vertex="1" parent="DFOY4-Ip_yTvPPJxsnzs-130">
          <mxGeometry x="230" width="140" height="130" as="geometry" />
        </mxCell>
        <mxCell id="DFOY4-Ip_yTvPPJxsnzs-101" value="&lt;div&gt;&#39;type&#39;,&lt;/div&gt;&lt;div&gt;&#39;netPercent&#39;,&lt;/div&gt;&lt;div&gt;&#39;longPercent&#39;,&lt;/div&gt;&lt;div&gt;&#39;shortPercent&#39;,&lt;/div&gt;&lt;div&gt;&#39;categoryAverage&#39;,&lt;/div&gt;&lt;div&gt;&#39;benchmark&#39;&lt;/div&gt;" style="text;strokeColor=none;fillColor=none;align=left;verticalAlign=middle;spacingLeft=4;spacingRight=4;overflow=hidden;points=[[0,0.5],[1,0.5]];portConstraint=eastwest;rotatable=0;whiteSpace=wrap;html=1;" vertex="1" parent="DFOY4-Ip_yTvPPJxsnzs-100">
          <mxGeometry y="30" width="140" height="100" as="geometry" />
        </mxCell>
        <mxCell id="DFOY4-Ip_yTvPPJxsnzs-103" value="valueGrowth[0]" style="swimlane;fontStyle=0;childLayout=stackLayout;horizontal=1;startSize=30;horizontalStack=0;resizeParent=1;resizeParentMax=0;resizeLast=0;collapsible=1;marginBottom=0;whiteSpace=wrap;html=1;" vertex="1" parent="DFOY4-Ip_yTvPPJxsnzs-130">
          <mxGeometry x="230" y="137.05479452054794" width="140" height="96.16438356164383" as="geometry" />
        </mxCell>
        <mxCell id="DFOY4-Ip_yTvPPJxsnzs-104" value="&lt;div&gt;&#39;name&#39;,&amp;nbsp;&lt;/div&gt;&lt;div&gt;&#39;categoryAverage&#39;,&amp;nbsp;&lt;/div&gt;&lt;div&gt;&#39;benchmark&#39;,&amp;nbsp;&lt;/div&gt;&lt;div&gt;&#39;stockPortfolio&#39;&lt;/div&gt;" style="text;strokeColor=none;fillColor=none;align=left;verticalAlign=middle;spacingLeft=4;spacingRight=4;overflow=hidden;points=[[0,0.5],[1,0.5]];portConstraint=eastwest;rotatable=0;whiteSpace=wrap;html=1;" vertex="1" parent="DFOY4-Ip_yTvPPJxsnzs-103">
          <mxGeometry y="30" width="140" height="66.16438356164383" as="geometry" />
        </mxCell>
        <mxCell id="DFOY4-Ip_yTvPPJxsnzs-106" value="sectorWeights[0]" style="swimlane;fontStyle=0;childLayout=stackLayout;horizontal=1;startSize=30;horizontalStack=0;resizeParent=1;resizeParentMax=0;resizeLast=0;collapsible=1;marginBottom=0;whiteSpace=wrap;html=1;" vertex="1" parent="DFOY4-Ip_yTvPPJxsnzs-130">
          <mxGeometry x="230" y="264.6575342465753" width="140" height="86.7123287671233" as="geometry" />
        </mxCell>
        <mxCell id="DFOY4-Ip_yTvPPJxsnzs-107" value="name" style="text;strokeColor=none;fillColor=none;align=left;verticalAlign=middle;spacingLeft=4;spacingRight=4;overflow=hidden;points=[[0,0.5],[1,0.5]];portConstraint=eastwest;rotatable=0;whiteSpace=wrap;html=1;" vertex="1" parent="DFOY4-Ip_yTvPPJxsnzs-106">
          <mxGeometry y="30" width="140" height="28.356164383561644" as="geometry" />
        </mxCell>
        <mxCell id="DFOY4-Ip_yTvPPJxsnzs-108" value="sectorWeight" style="text;strokeColor=none;fillColor=none;align=left;verticalAlign=middle;spacingLeft=4;spacingRight=4;overflow=hidden;points=[[0,0.5],[1,0.5]];portConstraint=eastwest;rotatable=0;whiteSpace=wrap;html=1;" vertex="1" parent="DFOY4-Ip_yTvPPJxsnzs-106">
          <mxGeometry y="58.35616438356165" width="140" height="28.356164383561644" as="geometry" />
        </mxCell>
        <mxCell id="DFOY4-Ip_yTvPPJxsnzs-110" value="sectorWeight[0]" style="swimlane;fontStyle=0;childLayout=stackLayout;horizontal=1;startSize=30;horizontalStack=0;resizeParent=1;resizeParentMax=0;resizeLast=0;collapsible=1;marginBottom=0;whiteSpace=wrap;html=1;" vertex="1" parent="DFOY4-Ip_yTvPPJxsnzs-130">
          <mxGeometry x="290" y="368.63013698630135" width="140" height="96.16438356164383" as="geometry" />
        </mxCell>
        <mxCell id="DFOY4-Ip_yTvPPJxsnzs-111" value="&lt;div&gt;&#39;type&#39;,&amp;nbsp;&lt;/div&gt;&lt;div&gt;&#39;categoryAverage&#39;,&amp;nbsp;&lt;/div&gt;&lt;div&gt;&#39;amountPercent&#39;,&amp;nbsp;&lt;/div&gt;&lt;div&gt;&#39;benchmark&#39;&lt;/div&gt;" style="text;strokeColor=none;fillColor=none;align=left;verticalAlign=middle;spacingLeft=4;spacingRight=4;overflow=hidden;points=[[0,0.5],[1,0.5]];portConstraint=eastwest;rotatable=0;whiteSpace=wrap;html=1;" vertex="1" parent="DFOY4-Ip_yTvPPJxsnzs-110">
          <mxGeometry y="30" width="140" height="66.16438356164383" as="geometry" />
        </mxCell>
        <mxCell id="DFOY4-Ip_yTvPPJxsnzs-120" value="topHoldings[0]" style="swimlane;fontStyle=0;childLayout=stackLayout;horizontal=1;startSize=30;horizontalStack=0;resizeParent=1;resizeParentMax=0;resizeLast=0;collapsible=1;marginBottom=0;whiteSpace=wrap;html=1;" vertex="1" parent="DFOY4-Ip_yTvPPJxsnzs-130">
          <mxGeometry x="230" y="557.6712328767123" width="120" height="96.16438356164383" as="geometry" />
        </mxCell>
        <mxCell id="DFOY4-Ip_yTvPPJxsnzs-121" value="&lt;div&gt;&#39;name&#39;,&amp;nbsp;&lt;/div&gt;&lt;div&gt;&#39;owned&#39;,&amp;nbsp;&lt;/div&gt;&lt;div&gt;&#39;change&#39;,&amp;nbsp;&lt;/div&gt;&lt;div&gt;&#39;weight&#39;&lt;/div&gt;" style="text;strokeColor=none;fillColor=none;align=left;verticalAlign=middle;spacingLeft=4;spacingRight=4;overflow=hidden;points=[[0,0.5],[1,0.5]];portConstraint=eastwest;rotatable=0;whiteSpace=wrap;html=1;" vertex="1" parent="DFOY4-Ip_yTvPPJxsnzs-120">
          <mxGeometry y="30" width="120" height="66.16438356164383" as="geometry" />
        </mxCell>
        <mxCell id="DFOY4-Ip_yTvPPJxsnzs-122" style="edgeStyle=orthogonalEdgeStyle;rounded=0;orthogonalLoop=1;jettySize=auto;html=1;entryX=0.003;entryY=0.237;entryDx=0;entryDy=0;entryPerimeter=0;" edge="1" parent="DFOY4-Ip_yTvPPJxsnzs-130" source="DFOY4-Ip_yTvPPJxsnzs-97" target="DFOY4-Ip_yTvPPJxsnzs-62">
          <mxGeometry relative="1" as="geometry" />
        </mxCell>
        <mxCell id="DFOY4-Ip_yTvPPJxsnzs-102" style="edgeStyle=orthogonalEdgeStyle;rounded=0;orthogonalLoop=1;jettySize=auto;html=1;entryX=-0.016;entryY=0.205;entryDx=0;entryDy=0;entryPerimeter=0;" edge="1" parent="DFOY4-Ip_yTvPPJxsnzs-130" source="DFOY4-Ip_yTvPPJxsnzs-97" target="DFOY4-Ip_yTvPPJxsnzs-101">
          <mxGeometry relative="1" as="geometry" />
        </mxCell>
        <mxCell id="DFOY4-Ip_yTvPPJxsnzs-105" style="edgeStyle=orthogonalEdgeStyle;rounded=0;orthogonalLoop=1;jettySize=auto;html=1;entryX=-0.005;entryY=0.372;entryDx=0;entryDy=0;entryPerimeter=0;" edge="1" parent="DFOY4-Ip_yTvPPJxsnzs-130" source="DFOY4-Ip_yTvPPJxsnzs-97" target="DFOY4-Ip_yTvPPJxsnzs-104">
          <mxGeometry relative="1" as="geometry" />
        </mxCell>
        <mxCell id="DFOY4-Ip_yTvPPJxsnzs-116" style="edgeStyle=orthogonalEdgeStyle;rounded=0;orthogonalLoop=1;jettySize=auto;html=1;entryX=0;entryY=0.25;entryDx=0;entryDy=0;" edge="1" parent="DFOY4-Ip_yTvPPJxsnzs-130" source="DFOY4-Ip_yTvPPJxsnzs-97" target="DFOY4-Ip_yTvPPJxsnzs-106">
          <mxGeometry relative="1" as="geometry" />
        </mxCell>
        <mxCell id="DFOY4-Ip_yTvPPJxsnzs-115" style="edgeStyle=orthogonalEdgeStyle;rounded=0;orthogonalLoop=1;jettySize=auto;html=1;entryX=0.916;entryY=-0.004;entryDx=0;entryDy=0;entryPerimeter=0;" edge="1" parent="DFOY4-Ip_yTvPPJxsnzs-130" source="DFOY4-Ip_yTvPPJxsnzs-107" target="DFOY4-Ip_yTvPPJxsnzs-110">
          <mxGeometry relative="1" as="geometry" />
        </mxCell>
        <mxCell id="DFOY4-Ip_yTvPPJxsnzs-123" style="edgeStyle=orthogonalEdgeStyle;rounded=0;orthogonalLoop=1;jettySize=auto;html=1;entryX=0;entryY=0.5;entryDx=0;entryDy=0;" edge="1" parent="DFOY4-Ip_yTvPPJxsnzs-130" source="DFOY4-Ip_yTvPPJxsnzs-97" target="DFOY4-Ip_yTvPPJxsnzs-121">
          <mxGeometry relative="1" as="geometry" />
        </mxCell>
        <mxCell id="DFOY4-Ip_yTvPPJxsnzs-146" value="dividends[0]" style="swimlane;fontStyle=0;childLayout=stackLayout;horizontal=1;startSize=30;horizontalStack=0;resizeParent=1;resizeParentMax=0;resizeLast=0;collapsible=1;marginBottom=0;whiteSpace=wrap;html=1;" vertex="1" parent="DFOY4-Ip_yTvPPJxsnzs-130">
          <mxGeometry y="2160" width="120" height="140" as="geometry" />
        </mxCell>
        <mxCell id="DFOY4-Ip_yTvPPJxsnzs-147" value="&lt;div&gt;&#39;date&#39;,&lt;/div&gt;&lt;div&gt;&#39;declarationDate&#39;,&lt;/div&gt;&lt;div&gt;&#39;recordDate&#39;,&lt;/div&gt;&lt;div&gt;&#39;paymentDate&#39;,&lt;/div&gt;&lt;div&gt;&#39;period&#39;,&lt;/div&gt;&lt;div&gt;&#39;value&#39;,&lt;/div&gt;&lt;div&gt;&#39;unadjustedValue&#39;&lt;/div&gt;" style="text;strokeColor=none;fillColor=none;align=left;verticalAlign=middle;spacingLeft=4;spacingRight=4;overflow=hidden;points=[[0,0.5],[1,0.5]];portConstraint=eastwest;rotatable=0;whiteSpace=wrap;html=1;" vertex="1" parent="DFOY4-Ip_yTvPPJxsnzs-146">
          <mxGeometry y="30" width="120" height="110" as="geometry" />
        </mxCell>
        <mxCell id="DFOY4-Ip_yTvPPJxsnzs-148" value="addressDetails" style="swimlane;fontStyle=0;childLayout=stackLayout;horizontal=1;startSize=30;horizontalStack=0;resizeParent=1;resizeParentMax=0;resizeLast=0;collapsible=1;marginBottom=0;whiteSpace=wrap;html=1;" vertex="1" parent="DFOY4-Ip_yTvPPJxsnzs-130">
          <mxGeometry y="640" width="120" height="110" as="geometry" />
        </mxCell>
        <mxCell id="DFOY4-Ip_yTvPPJxsnzs-149" value="&lt;div&gt;&#39;zip&#39;,&amp;nbsp;&lt;/div&gt;&lt;div&gt;&#39;city&#39;,&amp;nbsp;&lt;/div&gt;&lt;div&gt;&#39;state&#39;,&amp;nbsp;&lt;/div&gt;&lt;div&gt;&#39;street&#39;,&amp;nbsp;&lt;/div&gt;&lt;div&gt;&#39;country&#39;&lt;/div&gt;" style="text;strokeColor=none;fillColor=none;align=left;verticalAlign=middle;spacingLeft=4;spacingRight=4;overflow=hidden;points=[[0,0.5],[1,0.5]];portConstraint=eastwest;rotatable=0;whiteSpace=wrap;html=1;" vertex="1" parent="DFOY4-Ip_yTvPPJxsnzs-148">
          <mxGeometry y="30" width="120" height="80" as="geometry" />
        </mxCell>
        <mxCell id="DFOY4-Ip_yTvPPJxsnzs-150" value="officers[0]" style="swimlane;fontStyle=0;childLayout=stackLayout;horizontal=1;startSize=30;horizontalStack=0;resizeParent=1;resizeParentMax=0;resizeLast=0;collapsible=1;marginBottom=0;whiteSpace=wrap;html=1;" vertex="1" parent="DFOY4-Ip_yTvPPJxsnzs-130">
          <mxGeometry y="760" width="120" height="80" as="geometry" />
        </mxCell>
        <mxCell id="DFOY4-Ip_yTvPPJxsnzs-151" value="&lt;div&gt;&#39;name&#39;,&amp;nbsp;&lt;/div&gt;&lt;div&gt;&#39;title&#39;,&amp;nbsp;&lt;/div&gt;&lt;div&gt;&#39;yearBorn&#39;&lt;/div&gt;" style="text;strokeColor=none;fillColor=none;align=left;verticalAlign=middle;spacingLeft=4;spacingRight=4;overflow=hidden;points=[[0,0.5],[1,0.5]];portConstraint=eastwest;rotatable=0;whiteSpace=wrap;html=1;" vertex="1" parent="DFOY4-Ip_yTvPPJxsnzs-150">
          <mxGeometry y="30" width="120" height="50" as="geometry" />
        </mxCell>
        <mxCell id="DFOY4-Ip_yTvPPJxsnzs-152" value="statistics" style="swimlane;fontStyle=0;childLayout=stackLayout;horizontal=1;startSize=30;horizontalStack=0;resizeParent=1;resizeParentMax=0;resizeLast=0;collapsible=1;marginBottom=0;whiteSpace=wrap;html=1;" vertex="1" parent="DFOY4-Ip_yTvPPJxsnzs-130">
          <mxGeometry y="870" width="120" height="170" as="geometry" />
        </mxCell>
        <mxCell id="DFOY4-Ip_yTvPPJxsnzs-153" value="&lt;div&gt;&#39;explorer&#39;,&lt;/div&gt;&lt;div&gt;&#39;maxSupply&#39;,&lt;/div&gt;&lt;div&gt;&#39;lowAllTime&#39;,&lt;/div&gt;&lt;div&gt;&#39;sourceCode&#39;,&lt;/div&gt;&lt;div&gt;&#39;highAllTime&#39;,&lt;/div&gt;&lt;div&gt;&#39;totalSupply&#39;,&lt;/div&gt;&lt;div&gt;&#39;messageBoard&#39;,&lt;/div&gt;&lt;div&gt;&#39;technicalDoc&#39;,&lt;/div&gt;&lt;div&gt;&#39;circulatingSupply&#39;&lt;/div&gt;" style="text;strokeColor=none;fillColor=none;align=left;verticalAlign=middle;spacingLeft=4;spacingRight=4;overflow=hidden;points=[[0,0.5],[1,0.5]];portConstraint=eastwest;rotatable=0;whiteSpace=wrap;html=1;" vertex="1" parent="DFOY4-Ip_yTvPPJxsnzs-152">
          <mxGeometry y="30" width="120" height="140" as="geometry" />
        </mxCell>
        <mxCell id="DFOY4-Ip_yTvPPJxsnzs-154" value="highlights" style="swimlane;fontStyle=0;childLayout=stackLayout;horizontal=1;startSize=30;horizontalStack=0;resizeParent=1;resizeParentMax=0;resizeLast=0;collapsible=1;marginBottom=0;whiteSpace=wrap;html=1;" vertex="1" parent="DFOY4-Ip_yTvPPJxsnzs-130">
          <mxGeometry y="1060" width="190" height="380" as="geometry" />
        </mxCell>
        <mxCell id="DFOY4-Ip_yTvPPJxsnzs-155" value="&lt;div&gt;&#39;ebitda&#39;,&lt;/div&gt;&lt;div&gt;&#39;peRatio&#39;,&lt;/div&gt;&lt;div&gt;&#39;pegRatio&#39;,&lt;/div&gt;&lt;div&gt;&#39;wallStreetTargetPrice&#39;,&lt;/div&gt;&lt;div&gt;&#39;bookValue&#39;,&lt;/div&gt;&lt;div&gt;&#39;dividendShare&#39;,&lt;/div&gt;&lt;div&gt;&#39;dividendYield&#39;,&lt;/div&gt;&lt;div&gt;&#39;earningsShare&#39;,&lt;/div&gt;&lt;div&gt;&#39;epsEstimateCurrentYear&#39;,&lt;/div&gt;&lt;div&gt;&#39;epsEstimateNextYear&#39;,&lt;/div&gt;&lt;div&gt;&#39;epsEstimateNextQuarter&#39;,&lt;/div&gt;&lt;div&gt;&#39;epsEstimateCurrentQuarter&#39;,&lt;/div&gt;&lt;div&gt;&#39;mostRecentQuarter&#39;,&lt;/div&gt;&lt;div&gt;&#39;profitMargin&#39;,&lt;/div&gt;&lt;div&gt;&#39;operatingMarginTtm&#39;,&lt;/div&gt;&lt;div&gt;&#39;returnOnAssetsTtm&#39;,&lt;/div&gt;&lt;div&gt;&#39;returnOnEquityTtm&#39;,&lt;/div&gt;&lt;div&gt;&#39;revenueTtm&#39;,&lt;/div&gt;&lt;div&gt;&#39;revenuePerShareTtm&#39;,&lt;/div&gt;&lt;div&gt;&#39;quarterlyRevenueGrowthYoy&#39;,&lt;/div&gt;&lt;div&gt;&#39;grossProfitTtm&#39;,&lt;/div&gt;&lt;div&gt;&#39;dilutedEpsTtm&#39;,&lt;/div&gt;&lt;div&gt;&#39;quarterlyEarningsGrowthYoy&#39;&lt;/div&gt;" style="text;strokeColor=none;fillColor=none;align=left;verticalAlign=middle;spacingLeft=4;spacingRight=4;overflow=hidden;points=[[0,0.5],[1,0.5]];portConstraint=eastwest;rotatable=0;whiteSpace=wrap;html=1;" vertex="1" parent="DFOY4-Ip_yTvPPJxsnzs-154">
          <mxGeometry y="30" width="190" height="350" as="geometry" />
        </mxCell>
        <mxCell id="DFOY4-Ip_yTvPPJxsnzs-157" value="technicals" style="swimlane;fontStyle=0;childLayout=stackLayout;horizontal=1;startSize=30;horizontalStack=0;resizeParent=1;resizeParentMax=0;resizeLast=0;collapsible=1;marginBottom=0;whiteSpace=wrap;html=1;" vertex="1" parent="DFOY4-Ip_yTvPPJxsnzs-130">
          <mxGeometry y="1460" width="120" height="170" as="geometry" />
        </mxCell>
        <mxCell id="DFOY4-Ip_yTvPPJxsnzs-158" value="&lt;div&gt;&#39;beta&#39;,&lt;/div&gt;&lt;div&gt;&#39;52WeekHigh&#39;,&lt;/div&gt;&lt;div&gt;&#39;52WeekLow&#39;,&lt;/div&gt;&lt;div&gt;&#39;50DayMA&#39;,&lt;/div&gt;&lt;div&gt;&#39;200DayMA&#39;,&lt;/div&gt;&lt;div&gt;&#39;sharesShort&#39;,&lt;/div&gt;&lt;div&gt;&#39;sharesShortPriorMonth&#39;,&lt;/div&gt;&lt;div&gt;&#39;shortRatio&#39;,&lt;/div&gt;&lt;div&gt;&#39;shortPercent&#39;&lt;/div&gt;" style="text;strokeColor=none;fillColor=none;align=left;verticalAlign=middle;spacingLeft=4;spacingRight=4;overflow=hidden;points=[[0,0.5],[1,0.5]];portConstraint=eastwest;rotatable=0;whiteSpace=wrap;html=1;" vertex="1" parent="DFOY4-Ip_yTvPPJxsnzs-157">
          <mxGeometry y="30" width="120" height="140" as="geometry" />
        </mxCell>
        <mxCell id="DFOY4-Ip_yTvPPJxsnzs-159" value="valuation" style="swimlane;fontStyle=0;childLayout=stackLayout;horizontal=1;startSize=30;horizontalStack=0;resizeParent=1;resizeParentMax=0;resizeLast=0;collapsible=1;marginBottom=0;whiteSpace=wrap;html=1;" vertex="1" parent="DFOY4-Ip_yTvPPJxsnzs-130">
          <mxGeometry y="1650" width="150" height="120" as="geometry" />
        </mxCell>
        <mxCell id="DFOY4-Ip_yTvPPJxsnzs-160" value="&lt;div&gt;&#39;trailingPe&#39;,&lt;/div&gt;&lt;div&gt;&#39;forwardPe&#39;,&lt;/div&gt;&lt;div&gt;&#39;priceSalesTtm&#39;,&lt;/div&gt;&lt;div&gt;&#39;priceBookMrq&#39;,&lt;/div&gt;&lt;div&gt;&#39;enterpriseValueRevenue&#39;,&lt;/div&gt;&lt;div&gt;&#39;enterpriseValueEbitda&#39;&lt;/div&gt;" style="text;strokeColor=none;fillColor=none;align=left;verticalAlign=middle;spacingLeft=4;spacingRight=4;overflow=hidden;points=[[0,0.5],[1,0.5]];portConstraint=eastwest;rotatable=0;whiteSpace=wrap;html=1;" vertex="1" parent="DFOY4-Ip_yTvPPJxsnzs-159">
          <mxGeometry y="30" width="150" height="90" as="geometry" />
        </mxCell>
        <mxCell id="DFOY4-Ip_yTvPPJxsnzs-161" value="sharesStatistics" style="swimlane;fontStyle=0;childLayout=stackLayout;horizontal=1;startSize=30;horizontalStack=0;resizeParent=1;resizeParentMax=0;resizeLast=0;collapsible=1;marginBottom=0;whiteSpace=wrap;html=1;" vertex="1" parent="DFOY4-Ip_yTvPPJxsnzs-130">
          <mxGeometry y="1790" width="150" height="170" as="geometry" />
        </mxCell>
        <mxCell id="DFOY4-Ip_yTvPPJxsnzs-162" value="&lt;div&gt;&#39;sharesOutstanding&#39;,&lt;/div&gt;&lt;div&gt;&#39;sharesFloat&#39;,&lt;/div&gt;&lt;div&gt;&#39;percentInsiders&#39;,&lt;/div&gt;&lt;div&gt;&#39;percentInstitutions&#39;,&lt;/div&gt;&lt;div&gt;&#39;sharesShort&#39;,&lt;/div&gt;&lt;div&gt;&#39;sharesShortPriorMonth&#39;,&lt;/div&gt;&lt;div&gt;&#39;shortRatio&#39;,&lt;/div&gt;&lt;div&gt;&#39;shortPercentOutstanding&#39;,&lt;/div&gt;&lt;div&gt;&#39;shortPercentFloat&#39;&lt;/div&gt;" style="text;strokeColor=none;fillColor=none;align=left;verticalAlign=middle;spacingLeft=4;spacingRight=4;overflow=hidden;points=[[0,0.5],[1,0.5]];portConstraint=eastwest;rotatable=0;whiteSpace=wrap;html=1;" vertex="1" parent="DFOY4-Ip_yTvPPJxsnzs-161">
          <mxGeometry y="30" width="150" height="140" as="geometry" />
        </mxCell>
        <mxCell id="DFOY4-Ip_yTvPPJxsnzs-163" value="splitsDividends" style="swimlane;fontStyle=0;childLayout=stackLayout;horizontal=1;startSize=30;horizontalStack=0;resizeParent=1;resizeParentMax=0;resizeLast=0;collapsible=1;marginBottom=0;whiteSpace=wrap;html=1;" vertex="1" parent="DFOY4-Ip_yTvPPJxsnzs-130">
          <mxGeometry y="1970" width="170" height="170" as="geometry" />
        </mxCell>
        <mxCell id="DFOY4-Ip_yTvPPJxsnzs-164" value="&lt;div&gt;&#39;forwardAnnualDividendRate&#39;,&lt;/div&gt;&lt;div&gt;&#39;forwardAnnualDividendYield&#39;,&lt;/div&gt;&lt;div&gt;&#39;payoutRatio&#39;,&lt;/div&gt;&lt;div&gt;&#39;dividendDate&#39;,&lt;/div&gt;&lt;div&gt;&#39;exDividendDate&#39;,&lt;/div&gt;&lt;div&gt;&#39;lastSplitFactor&#39;,&lt;/div&gt;&lt;div&gt;&#39;lastSplitDate&#39;,&lt;/div&gt;&lt;div&gt;&#39;numberDividendsByYear&#39;&lt;/div&gt;" style="text;strokeColor=none;fillColor=none;align=left;verticalAlign=middle;spacingLeft=4;spacingRight=4;overflow=hidden;points=[[0,0.5],[1,0.5]];portConstraint=eastwest;rotatable=0;whiteSpace=wrap;html=1;" vertex="1" parent="DFOY4-Ip_yTvPPJxsnzs-163">
          <mxGeometry y="30" width="170" height="140" as="geometry" />
        </mxCell>
        <mxCell id="DFOY4-Ip_yTvPPJxsnzs-167" value="numberDividendsByYear" style="swimlane;fontStyle=0;childLayout=stackLayout;horizontal=1;startSize=30;horizontalStack=0;resizeParent=1;resizeParentMax=0;resizeLast=0;collapsible=1;marginBottom=0;whiteSpace=wrap;html=1;" vertex="1" parent="DFOY4-Ip_yTvPPJxsnzs-130">
          <mxGeometry x="250" y="2010" width="150" height="70" as="geometry" />
        </mxCell>
        <mxCell id="DFOY4-Ip_yTvPPJxsnzs-168" value="&#39;year&#39;&lt;br&gt;&#39;count&#39;" style="text;strokeColor=none;fillColor=none;align=left;verticalAlign=middle;spacingLeft=4;spacingRight=4;overflow=hidden;points=[[0,0.5],[1,0.5]];portConstraint=eastwest;rotatable=0;whiteSpace=wrap;html=1;" vertex="1" parent="DFOY4-Ip_yTvPPJxsnzs-167">
          <mxGeometry y="30" width="150" height="40" as="geometry" />
        </mxCell>
        <mxCell id="DFOY4-Ip_yTvPPJxsnzs-169" style="edgeStyle=orthogonalEdgeStyle;rounded=0;orthogonalLoop=1;jettySize=auto;html=1;entryX=-0.023;entryY=0.163;entryDx=0;entryDy=0;entryPerimeter=0;" edge="1" parent="DFOY4-Ip_yTvPPJxsnzs-130" source="DFOY4-Ip_yTvPPJxsnzs-164" target="DFOY4-Ip_yTvPPJxsnzs-168">
          <mxGeometry relative="1" as="geometry" />
        </mxCell>
        <mxCell id="DFOY4-Ip_yTvPPJxsnzs-170" value="splits" style="swimlane;fontStyle=0;childLayout=stackLayout;horizontal=1;startSize=30;horizontalStack=0;resizeParent=1;resizeParentMax=0;resizeLast=0;collapsible=1;marginBottom=0;whiteSpace=wrap;html=1;" vertex="1" parent="DFOY4-Ip_yTvPPJxsnzs-130">
          <mxGeometry y="2320" width="110" height="70" as="geometry" />
        </mxCell>
        <mxCell id="DFOY4-Ip_yTvPPJxsnzs-171" value="&#39;date&#39;&lt;br&gt;&#39;split&#39;" style="text;strokeColor=none;fillColor=none;align=left;verticalAlign=middle;spacingLeft=4;spacingRight=4;overflow=hidden;points=[[0,0.5],[1,0.5]];portConstraint=eastwest;rotatable=0;whiteSpace=wrap;html=1;" vertex="1" parent="DFOY4-Ip_yTvPPJxsnzs-170">
          <mxGeometry y="30" width="110" height="40" as="geometry" />
        </mxCell>
        <mxCell id="DFOY4-Ip_yTvPPJxsnzs-174" value="earnings" style="swimlane;fontStyle=0;childLayout=stackLayout;horizontal=1;startSize=30;horizontalStack=0;resizeParent=1;resizeParentMax=0;resizeLast=0;collapsible=1;marginBottom=0;whiteSpace=wrap;html=1;" vertex="1" parent="DFOY4-Ip_yTvPPJxsnzs-130">
          <mxGeometry y="2410" width="90" height="90" as="geometry" />
        </mxCell>
        <mxCell id="DFOY4-Ip_yTvPPJxsnzs-175" value="history" style="text;strokeColor=none;fillColor=none;align=left;verticalAlign=middle;spacingLeft=4;spacingRight=4;overflow=hidden;points=[[0,0.5],[1,0.5]];portConstraint=eastwest;rotatable=0;whiteSpace=wrap;html=1;" vertex="1" parent="DFOY4-Ip_yTvPPJxsnzs-174">
          <mxGeometry y="30" width="90" height="20" as="geometry" />
        </mxCell>
        <mxCell id="DFOY4-Ip_yTvPPJxsnzs-176" value="trend" style="text;strokeColor=none;fillColor=none;align=left;verticalAlign=middle;spacingLeft=4;spacingRight=4;overflow=hidden;points=[[0,0.5],[1,0.5]];portConstraint=eastwest;rotatable=0;whiteSpace=wrap;html=1;" vertex="1" parent="DFOY4-Ip_yTvPPJxsnzs-174">
          <mxGeometry y="50" width="90" height="20" as="geometry" />
        </mxCell>
        <mxCell id="DFOY4-Ip_yTvPPJxsnzs-177" value="annual" style="text;strokeColor=none;fillColor=none;align=left;verticalAlign=middle;spacingLeft=4;spacingRight=4;overflow=hidden;points=[[0,0.5],[1,0.5]];portConstraint=eastwest;rotatable=0;whiteSpace=wrap;html=1;" vertex="1" parent="DFOY4-Ip_yTvPPJxsnzs-174">
          <mxGeometry y="70" width="90" height="20" as="geometry" />
        </mxCell>
        <mxCell id="DFOY4-Ip_yTvPPJxsnzs-178" value="history" style="swimlane;fontStyle=0;childLayout=stackLayout;horizontal=1;startSize=30;horizontalStack=0;resizeParent=1;resizeParentMax=0;resizeLast=0;collapsible=1;marginBottom=0;whiteSpace=wrap;html=1;" vertex="1" parent="DFOY4-Ip_yTvPPJxsnzs-130">
          <mxGeometry x="170" y="2330" width="110" height="140" as="geometry" />
        </mxCell>
        <mxCell id="DFOY4-Ip_yTvPPJxsnzs-179" value="&lt;div&gt;&#39;date&#39;,&lt;/div&gt;&lt;div&gt;&#39;reportDate&#39;,&lt;/div&gt;&lt;div&gt;&#39;epsActual&#39;,&lt;/div&gt;&lt;div&gt;&#39;epsEstimate&#39;,&lt;/div&gt;&lt;div&gt;&#39;epsDifference&#39;,&lt;/div&gt;&lt;div&gt;&#39;surprisePercent&#39;,&lt;/div&gt;&lt;div&gt;&#39;beforeAfterMarket&#39;&lt;/div&gt;" style="text;strokeColor=none;fillColor=none;align=left;verticalAlign=middle;spacingLeft=4;spacingRight=4;overflow=hidden;points=[[0,0.5],[1,0.5]];portConstraint=eastwest;rotatable=0;whiteSpace=wrap;html=1;" vertex="1" parent="DFOY4-Ip_yTvPPJxsnzs-178">
          <mxGeometry y="30" width="110" height="110" as="geometry" />
        </mxCell>
        <mxCell id="DFOY4-Ip_yTvPPJxsnzs-182" style="edgeStyle=orthogonalEdgeStyle;rounded=0;orthogonalLoop=1;jettySize=auto;html=1;entryX=0;entryY=0.5;entryDx=0;entryDy=0;" edge="1" parent="DFOY4-Ip_yTvPPJxsnzs-130" source="DFOY4-Ip_yTvPPJxsnzs-175" target="DFOY4-Ip_yTvPPJxsnzs-179">
          <mxGeometry relative="1" as="geometry" />
        </mxCell>
        <mxCell id="DFOY4-Ip_yTvPPJxsnzs-183" value="" style="edgeStyle=orthogonalEdgeStyle;rounded=0;orthogonalLoop=1;jettySize=auto;html=1;" edge="1" parent="DFOY4-Ip_yTvPPJxsnzs-130" source="DFOY4-Ip_yTvPPJxsnzs-177" target="DFOY4-Ip_yTvPPJxsnzs-179">
          <mxGeometry relative="1" as="geometry" />
        </mxCell>
        <mxCell id="DFOY4-Ip_yTvPPJxsnzs-186" value="financials" style="swimlane;fontStyle=0;childLayout=stackLayout;horizontal=1;startSize=30;horizontalStack=0;resizeParent=1;resizeParentMax=0;resizeLast=0;collapsible=1;marginBottom=0;whiteSpace=wrap;html=1;" vertex="1" parent="DFOY4-Ip_yTvPPJxsnzs-130">
          <mxGeometry y="2530" width="110" height="90" as="geometry" />
        </mxCell>
        <mxCell id="DFOY4-Ip_yTvPPJxsnzs-187" value="balanceSheet" style="text;strokeColor=none;fillColor=none;align=left;verticalAlign=middle;spacingLeft=4;spacingRight=4;overflow=hidden;points=[[0,0.5],[1,0.5]];portConstraint=eastwest;rotatable=0;whiteSpace=wrap;html=1;" vertex="1" parent="DFOY4-Ip_yTvPPJxsnzs-186">
          <mxGeometry y="30" width="110" height="20" as="geometry" />
        </mxCell>
        <mxCell id="DFOY4-Ip_yTvPPJxsnzs-188" value="cashFlow" style="text;strokeColor=none;fillColor=none;align=left;verticalAlign=middle;spacingLeft=4;spacingRight=4;overflow=hidden;points=[[0,0.5],[1,0.5]];portConstraint=eastwest;rotatable=0;whiteSpace=wrap;html=1;" vertex="1" parent="DFOY4-Ip_yTvPPJxsnzs-186">
          <mxGeometry y="50" width="110" height="20" as="geometry" />
        </mxCell>
        <mxCell id="DFOY4-Ip_yTvPPJxsnzs-189" value="incomeStatement" style="text;strokeColor=none;fillColor=none;align=left;verticalAlign=middle;spacingLeft=4;spacingRight=4;overflow=hidden;points=[[0,0.5],[1,0.5]];portConstraint=eastwest;rotatable=0;whiteSpace=wrap;html=1;" vertex="1" parent="DFOY4-Ip_yTvPPJxsnzs-186">
          <mxGeometry y="70" width="110" height="20" as="geometry" />
        </mxCell>
        <mxCell id="DFOY4-Ip_yTvPPJxsnzs-192" value="quarterly[0]" style="swimlane;fontStyle=0;childLayout=stackLayout;horizontal=1;startSize=30;horizontalStack=0;resizeParent=1;resizeParentMax=0;resizeLast=0;collapsible=1;marginBottom=0;whiteSpace=wrap;html=1;" vertex="1" parent="DFOY4-Ip_yTvPPJxsnzs-130">
          <mxGeometry x="530" y="1970" width="230" height="810" as="geometry" />
        </mxCell>
        <mxCell id="DFOY4-Ip_yTvPPJxsnzs-193" value="&lt;div&gt;&#39;date&#39;,&lt;/div&gt;&lt;div&gt;&#39;filingDate&#39;,&lt;/div&gt;&lt;div&gt;&#39;intangibleAssets&#39;,&lt;/div&gt;&lt;div&gt;&#39;totalLiability&#39;,&lt;/div&gt;&lt;div&gt;&#39;totalStockholderEquity&#39;,&lt;/div&gt;&lt;div&gt;&#39;deferredLongTermLiability&#39;,&lt;/div&gt;&lt;div&gt;&#39;otherCurrentLiability&#39;,&lt;/div&gt;&lt;div&gt;&#39;totalAssets&#39;,&lt;/div&gt;&lt;div&gt;&#39;commonStock&#39;,&lt;/div&gt;&lt;div&gt;&#39;otherCurrentAssets&#39;,&lt;/div&gt;&lt;div&gt;&#39;retainedEarnings&#39;,&lt;/div&gt;&lt;div&gt;&#39;otherLiab&#39;,&lt;/div&gt;&lt;div&gt;&#39;goodWill&#39;,&lt;/div&gt;&lt;div&gt;&#39;otherAssets&#39;,&lt;/div&gt;&lt;div&gt;&#39;cash&#39;,&lt;/div&gt;&lt;div&gt;&#39;totalCurrentLiabilities&#39;,&lt;/div&gt;&lt;div&gt;&#39;shortLongTermDebt&#39;,&lt;/div&gt;&lt;div&gt;&#39;otherStockholderEquity&#39;,&lt;/div&gt;&lt;div&gt;&#39;propertyPlantEquipment&#39;,&lt;/div&gt;&lt;div&gt;&#39;totalCurrentAssets&#39;,&lt;/div&gt;&lt;div&gt;&#39;longTermInvestments&#39;,&lt;/div&gt;&lt;div&gt;&#39;netTangibleAssets&#39;,&lt;/div&gt;&lt;div&gt;&#39;shortTermInvestments&#39;,&lt;/div&gt;&lt;div&gt;&#39;netReceivables&#39;,&lt;/div&gt;&lt;div&gt;&#39;longTermDebt&#39;,&lt;/div&gt;&lt;div&gt;&#39;inventory&#39;,&lt;/div&gt;&lt;div&gt;&#39;accountsPayable&#39;,&lt;/div&gt;&lt;div&gt;&#39;totalPermanentEquity&#39;,&lt;/div&gt;&lt;div&gt;&#39;nonControllingInterestInConsolidatedEntity&#39;,&lt;/div&gt;&lt;div&gt;&#39;temporaryEquityRedeemableNonControllingInterests&#39;,&lt;/div&gt;&lt;div&gt;&#39;accumulatedOtherComprehensiveIncome&#39;,&lt;/div&gt;&lt;div&gt;&#39;additionalPaidInCapital&#39;,&lt;/div&gt;&lt;div&gt;&#39;commonStockTotalEquity&#39;,&lt;/div&gt;&lt;div&gt;&#39;preferredStockTotalEquity&#39;,&lt;/div&gt;&lt;div&gt;&#39;retainedEarningsTotalEquity&#39;,&lt;/div&gt;&lt;div&gt;&#39;treasuryStock&#39;,&lt;/div&gt;&lt;div&gt;&#39;accumulatedAmortization&#39;,&lt;/div&gt;&lt;div&gt;&#39;nonCurrentAssetsOther&#39;,&lt;/div&gt;&lt;div&gt;&#39;deferredLongTermAssetCharges&#39;,&lt;/div&gt;&lt;div&gt;&#39;nonCurrentAssetsTotal&#39;,&lt;/div&gt;&lt;div&gt;&#39;shortTermDebt&#39;,&lt;/div&gt;&lt;div&gt;&#39;capitalLeaseObligations&#39;,&lt;/div&gt;&lt;div&gt;&#39;longTermDebtTotal&#39;,&lt;/div&gt;&lt;div&gt;&#39;nonCurrentLiabilitiesOther&#39;,&lt;/div&gt;&lt;div&gt;&#39;nonCurrentLiabilitiesTotal&#39;,&lt;/div&gt;&lt;div&gt;&#39;negativeGoodwill&#39;,&lt;/div&gt;&lt;div&gt;&#39;warrants&#39;,&lt;/div&gt;&lt;div&gt;&#39;preferredStockRedeemable&#39;,&lt;/div&gt;&lt;div&gt;&#39;capitalSurplus&#39;,&lt;/div&gt;&lt;div&gt;&#39;liabilitiesAndStockholdersEquity&#39;,&lt;/div&gt;&lt;div&gt;&#39;cashAndShortTermInvestments&#39;,&lt;/div&gt;&lt;div&gt;&#39;propertyPlantAndEquipmentGross&#39;,&lt;/div&gt;&lt;div&gt;&#39;accumulatedDepreciation&#39;,&lt;/div&gt;&lt;div&gt;&#39;commonStockSharesOutstanding&#39;&lt;/div&gt;" style="text;strokeColor=none;fillColor=none;align=left;verticalAlign=middle;spacingLeft=4;spacingRight=4;overflow=hidden;points=[[0,0.5],[1,0.5]];portConstraint=eastwest;rotatable=0;whiteSpace=wrap;html=1;" vertex="1" parent="DFOY4-Ip_yTvPPJxsnzs-192">
          <mxGeometry y="30" width="230" height="780" as="geometry" />
        </mxCell>
        <mxCell id="DFOY4-Ip_yTvPPJxsnzs-194" style="edgeStyle=orthogonalEdgeStyle;rounded=0;orthogonalLoop=1;jettySize=auto;html=1;entryX=0.009;entryY=0.473;entryDx=0;entryDy=0;entryPerimeter=0;" edge="1" parent="DFOY4-Ip_yTvPPJxsnzs-130" source="DFOY4-Ip_yTvPPJxsnzs-187" target="DFOY4-Ip_yTvPPJxsnzs-193">
          <mxGeometry relative="1" as="geometry" />
        </mxCell>
        <mxCell id="DFOY4-Ip_yTvPPJxsnzs-195" value="quarterly[0]" style="swimlane;fontStyle=0;childLayout=stackLayout;horizontal=1;startSize=30;horizontalStack=0;resizeParent=1;resizeParentMax=0;resizeLast=0;collapsible=1;marginBottom=0;whiteSpace=wrap;html=1;" vertex="1" parent="DFOY4-Ip_yTvPPJxsnzs-130">
          <mxGeometry x="530" y="2820" width="230" height="410" as="geometry" />
        </mxCell>
        <mxCell id="DFOY4-Ip_yTvPPJxsnzs-196" value="&lt;div&gt;&#39;date&#39;,&lt;/div&gt;&lt;div&gt;&#39;filingDate&#39;,&lt;/div&gt;&lt;div&gt;&#39;investments&#39;,&lt;/div&gt;&lt;div&gt;&#39;changeToLiabilities&#39;,&lt;/div&gt;&lt;div&gt;&#39;totalCashFlowsFromInvestingActivities&#39;,&lt;/div&gt;&lt;div&gt;&#39;netBorrowings&#39;,&lt;/div&gt;&lt;div&gt;&#39;totalCashFromFinancingActivities&#39;,&lt;/div&gt;&lt;div&gt;&#39;changeToOperatingActivities&#39;,&lt;/div&gt;&lt;div&gt;&#39;netIncome&#39;,&lt;/div&gt;&lt;div&gt;&#39;changeInCash&#39;,&lt;/div&gt;&lt;div&gt;&#39;beginPeriodCashFlow&#39;,&lt;/div&gt;&lt;div&gt;&#39;endPeriodCashFlow&#39;,&lt;/div&gt;&lt;div&gt;&#39;totalCashFromOperatingActivities&#39;,&lt;/div&gt;&lt;div&gt;&#39;depreciation&#39;,&lt;/div&gt;&lt;div&gt;&#39;otherCashFlowsFromInvestingActivities&#39;,&lt;/div&gt;&lt;div&gt;&#39;dividendsPaid&#39;,&lt;/div&gt;&lt;div&gt;&#39;changeToInventory&#39;,&lt;/div&gt;&lt;div&gt;&#39;changeToAccountReceivables&#39;,&lt;/div&gt;&lt;div&gt;&#39;salePurchaseOfStock&#39;,&lt;/div&gt;&lt;div&gt;&#39;otherCashFlowsFromFinancingActivities&#39;,&lt;/div&gt;&lt;div&gt;&#39;changeToNetIncome&#39;,&lt;/div&gt;&lt;div&gt;&#39;capitalExpenditures&#39;,&lt;/div&gt;&lt;div&gt;&#39;changeReceivables&#39;,&lt;/div&gt;&lt;div&gt;&#39;cashFlowsOtherOperating&#39;,&lt;/div&gt;&lt;div&gt;&#39;exchangeRateChanges&#39;,&lt;/div&gt;&lt;div&gt;&#39;cashAndCashEquivalentsChanges&#39;&lt;/div&gt;&lt;div&gt;&lt;br&gt;&lt;/div&gt;" style="text;strokeColor=none;fillColor=none;align=left;verticalAlign=middle;spacingLeft=4;spacingRight=4;overflow=hidden;points=[[0,0.5],[1,0.5]];portConstraint=eastwest;rotatable=0;whiteSpace=wrap;html=1;" vertex="1" parent="DFOY4-Ip_yTvPPJxsnzs-195">
          <mxGeometry y="30" width="230" height="380" as="geometry" />
        </mxCell>
        <mxCell id="DFOY4-Ip_yTvPPJxsnzs-197" style="edgeStyle=orthogonalEdgeStyle;rounded=0;orthogonalLoop=1;jettySize=auto;html=1;" edge="1" parent="DFOY4-Ip_yTvPPJxsnzs-130" source="DFOY4-Ip_yTvPPJxsnzs-188" target="DFOY4-Ip_yTvPPJxsnzs-196">
          <mxGeometry relative="1" as="geometry">
            <Array as="points">
              <mxPoint x="470" y="2590" />
              <mxPoint x="470" y="3040" />
            </Array>
          </mxGeometry>
        </mxCell>
        <mxCell id="DFOY4-Ip_yTvPPJxsnzs-198" value="quarterly[0]" style="swimlane;fontStyle=0;childLayout=stackLayout;horizontal=1;startSize=30;horizontalStack=0;resizeParent=1;resizeParentMax=0;resizeLast=0;collapsible=1;marginBottom=0;whiteSpace=wrap;html=1;" vertex="1" parent="DFOY4-Ip_yTvPPJxsnzs-130">
          <mxGeometry x="190" y="2700" width="250" height="450" as="geometry" />
        </mxCell>
        <mxCell id="DFOY4-Ip_yTvPPJxsnzs-199" value="&lt;div&gt;&#39;date&#39;,&lt;/div&gt;&lt;div&gt;&#39;filingDate&#39;,&lt;/div&gt;&lt;div&gt;&#39;researchDevelopment&#39;,&lt;/div&gt;&lt;div&gt;&#39;effectOfAccountingCharges&#39;,&lt;/div&gt;&lt;div&gt;&#39;incomeBeforeTax&#39;,&lt;/div&gt;&lt;div&gt;&#39;minorityInterest&#39;,&lt;/div&gt;&lt;div&gt;&#39;netIncome&#39;,&lt;/div&gt;&lt;div&gt;&#39;sellingGeneralAdministrative&#39;,&lt;/div&gt;&lt;div&gt;&#39;grossProfit&#39;,&lt;/div&gt;&lt;div&gt;&#39;ebit&#39;,&lt;/div&gt;&lt;div&gt;&#39;nonOperatingIncomeNetOther&#39;,&lt;/div&gt;&lt;div&gt;&#39;operatingIncome&#39;,&lt;/div&gt;&lt;div&gt;&#39;otherOperatingExpenses&#39;,&lt;/div&gt;&lt;div&gt;&#39;interestExpense&#39;,&lt;/div&gt;&lt;div&gt;&#39;taxProvision&#39;,&lt;/div&gt;&lt;div&gt;&#39;interestIncome&#39;,&lt;/div&gt;&lt;div&gt;&#39;netInterestIncome&#39;,&lt;/div&gt;&lt;div&gt;&#39;extraordinaryItems&#39;,&lt;/div&gt;&lt;div&gt;&#39;nonRecurring&#39;,&lt;/div&gt;&lt;div&gt;&#39;otherItems&#39;,&lt;/div&gt;&lt;div&gt;&#39;incomeTaxExpense&#39;,&lt;/div&gt;&lt;div&gt;&#39;totalRevenue&#39;,&lt;/div&gt;&lt;div&gt;&#39;totalOperatingExpenses&#39;,&lt;/div&gt;&lt;div&gt;&#39;costOfRevenue&#39;,&lt;/div&gt;&lt;div&gt;&#39;totalOtherIncomeExpenseNet&#39;,&lt;/div&gt;&lt;div&gt;&#39;discontinuedOperations&#39;,&lt;/div&gt;&lt;div&gt;&#39;netIncomeFromContinuingOps&#39;,&lt;/div&gt;&lt;div&gt;&#39;netIncomeApplicableToCommonShares&#39;,&lt;/div&gt;&lt;div&gt;&#39;preferredStockAndOtherAdjustments&#39;&lt;/div&gt;" style="text;strokeColor=none;fillColor=none;align=left;verticalAlign=middle;spacingLeft=4;spacingRight=4;overflow=hidden;points=[[0,0.5],[1,0.5]];portConstraint=eastwest;rotatable=0;whiteSpace=wrap;html=1;" vertex="1" parent="DFOY4-Ip_yTvPPJxsnzs-198">
          <mxGeometry y="30" width="250" height="420" as="geometry" />
        </mxCell>
        <mxCell id="DFOY4-Ip_yTvPPJxsnzs-201" style="edgeStyle=orthogonalEdgeStyle;rounded=0;orthogonalLoop=1;jettySize=auto;html=1;entryX=-0.012;entryY=0.615;entryDx=0;entryDy=0;entryPerimeter=0;" edge="1" parent="DFOY4-Ip_yTvPPJxsnzs-130" source="DFOY4-Ip_yTvPPJxsnzs-189" target="DFOY4-Ip_yTvPPJxsnzs-199">
          <mxGeometry relative="1" as="geometry" />
        </mxCell>
        <mxCell id="DFOY4-Ip_yTvPPJxsnzs-202" value="outstandingShares" style="swimlane;fontStyle=0;childLayout=stackLayout;horizontal=1;startSize=30;horizontalStack=0;resizeParent=1;resizeParentMax=0;resizeLast=0;collapsible=1;marginBottom=0;whiteSpace=wrap;html=1;" vertex="1" parent="DFOY4-Ip_yTvPPJxsnzs-130">
          <mxGeometry y="3160" width="110" height="70" as="geometry" />
        </mxCell>
        <mxCell id="DFOY4-Ip_yTvPPJxsnzs-203" value="annual" style="text;strokeColor=none;fillColor=none;align=left;verticalAlign=middle;spacingLeft=4;spacingRight=4;overflow=hidden;points=[[0,0.5],[1,0.5]];portConstraint=eastwest;rotatable=0;whiteSpace=wrap;html=1;" vertex="1" parent="DFOY4-Ip_yTvPPJxsnzs-202">
          <mxGeometry y="30" width="110" height="20" as="geometry" />
        </mxCell>
        <mxCell id="DFOY4-Ip_yTvPPJxsnzs-204" value="quarterly" style="text;strokeColor=none;fillColor=none;align=left;verticalAlign=middle;spacingLeft=4;spacingRight=4;overflow=hidden;points=[[0,0.5],[1,0.5]];portConstraint=eastwest;rotatable=0;whiteSpace=wrap;html=1;" vertex="1" parent="DFOY4-Ip_yTvPPJxsnzs-202">
          <mxGeometry y="50" width="110" height="20" as="geometry" />
        </mxCell>
        <mxCell id="DFOY4-Ip_yTvPPJxsnzs-206" value="annual" style="swimlane;fontStyle=0;childLayout=stackLayout;horizontal=1;startSize=30;horizontalStack=0;resizeParent=1;resizeParentMax=0;resizeLast=0;collapsible=1;marginBottom=0;whiteSpace=wrap;html=1;" vertex="1" parent="DFOY4-Ip_yTvPPJxsnzs-130">
          <mxGeometry x="200" y="3170" width="110" height="70" as="geometry" />
        </mxCell>
        <mxCell id="DFOY4-Ip_yTvPPJxsnzs-207" value="&lt;div&gt;&#39;date&#39;,&lt;/div&gt;&lt;div&gt;&#39;shares&#39;&lt;/div&gt;" style="text;strokeColor=none;fillColor=none;align=left;verticalAlign=middle;spacingLeft=4;spacingRight=4;overflow=hidden;points=[[0,0.5],[1,0.5]];portConstraint=eastwest;rotatable=0;whiteSpace=wrap;html=1;" vertex="1" parent="DFOY4-Ip_yTvPPJxsnzs-206">
          <mxGeometry y="30" width="110" height="40" as="geometry" />
        </mxCell>
        <mxCell id="DFOY4-Ip_yTvPPJxsnzs-208" style="edgeStyle=orthogonalEdgeStyle;rounded=0;orthogonalLoop=1;jettySize=auto;html=1;entryX=-0.037;entryY=0.23;entryDx=0;entryDy=0;entryPerimeter=0;" edge="1" parent="DFOY4-Ip_yTvPPJxsnzs-130" source="DFOY4-Ip_yTvPPJxsnzs-203" target="DFOY4-Ip_yTvPPJxsnzs-207">
          <mxGeometry relative="1" as="geometry" />
        </mxCell>
        <mxCell id="DFOY4-Ip_yTvPPJxsnzs-209" style="edgeStyle=orthogonalEdgeStyle;rounded=0;orthogonalLoop=1;jettySize=auto;html=1;entryX=0;entryY=0.5;entryDx=0;entryDy=0;" edge="1" parent="DFOY4-Ip_yTvPPJxsnzs-130" source="DFOY4-Ip_yTvPPJxsnzs-204" target="DFOY4-Ip_yTvPPJxsnzs-207">
          <mxGeometry relative="1" as="geometry" />
        </mxCell>
        <mxCell id="DFOY4-Ip_yTvPPJxsnzs-136" style="edgeStyle=orthogonalEdgeStyle;rounded=0;orthogonalLoop=1;jettySize=auto;html=1;exitX=1;exitY=0.5;exitDx=0;exitDy=0;" edge="1" parent="1" source="DFOY4-Ip_yTvPPJxsnzs-10">
          <mxGeometry relative="1" as="geometry">
            <mxPoint x="300" y="1123" as="targetPoint" />
            <Array as="points">
              <mxPoint x="120" y="2130" />
              <mxPoint x="120" y="1123" />
            </Array>
          </mxGeometry>
        </mxCell>
        <mxCell id="DFOY4-Ip_yTvPPJxsnzs-138" style="edgeStyle=orthogonalEdgeStyle;rounded=0;orthogonalLoop=1;jettySize=auto;html=1;exitX=1;exitY=0.5;exitDx=0;exitDy=0;entryX=-0.004;entryY=0.322;entryDx=0;entryDy=0;entryPerimeter=0;" edge="1" parent="1" source="DFOY4-Ip_yTvPPJxsnzs-10" target="DFOY4-Ip_yTvPPJxsnzs-24">
          <mxGeometry relative="1" as="geometry">
            <Array as="points">
              <mxPoint x="120" y="2130" />
              <mxPoint x="120" y="373" />
            </Array>
          </mxGeometry>
        </mxCell>
        <mxCell id="DFOY4-Ip_yTvPPJxsnzs-141" style="edgeStyle=orthogonalEdgeStyle;rounded=0;orthogonalLoop=1;jettySize=auto;html=1;entryX=0.018;entryY=0.34;entryDx=0;entryDy=0;entryPerimeter=0;" edge="1" parent="1" source="DFOY4-Ip_yTvPPJxsnzs-10" target="DFOY4-Ip_yTvPPJxsnzs-68">
          <mxGeometry relative="1" as="geometry">
            <Array as="points">
              <mxPoint x="120" y="2130" />
              <mxPoint x="120" y="820" />
            </Array>
          </mxGeometry>
        </mxCell>
        <mxCell id="DFOY4-Ip_yTvPPJxsnzs-142" style="edgeStyle=orthogonalEdgeStyle;rounded=0;orthogonalLoop=1;jettySize=auto;html=1;exitX=1;exitY=0.5;exitDx=0;exitDy=0;entryX=0;entryY=0.5;entryDx=0;entryDy=0;" edge="1" parent="1" source="DFOY4-Ip_yTvPPJxsnzs-68" target="DFOY4-Ip_yTvPPJxsnzs-71">
          <mxGeometry relative="1" as="geometry" />
        </mxCell>
        <mxCell id="DFOY4-Ip_yTvPPJxsnzs-143" value="indexComponents[0]" style="swimlane;fontStyle=0;childLayout=stackLayout;horizontal=1;startSize=30;horizontalStack=0;resizeParent=1;resizeParentMax=0;resizeLast=0;collapsible=1;marginBottom=0;whiteSpace=wrap;html=1;" vertex="1" parent="1">
          <mxGeometry x="300" y="630" width="120" height="110" as="geometry" />
        </mxCell>
        <mxCell id="DFOY4-Ip_yTvPPJxsnzs-144" value="&lt;div&gt;&#39;code&#39;,&amp;nbsp;&lt;/div&gt;&lt;div&gt;&#39;exchange&#39;,&amp;nbsp;&lt;/div&gt;&lt;div&gt;&#39;name&#39;,&amp;nbsp;&lt;/div&gt;&lt;div&gt;&#39;sector&#39;,&amp;nbsp;&lt;/div&gt;&lt;div&gt;&#39;industry&#39;&lt;/div&gt;" style="text;strokeColor=none;fillColor=none;align=left;verticalAlign=middle;spacingLeft=4;spacingRight=4;overflow=hidden;points=[[0,0.5],[1,0.5]];portConstraint=eastwest;rotatable=0;whiteSpace=wrap;html=1;" vertex="1" parent="DFOY4-Ip_yTvPPJxsnzs-143">
          <mxGeometry y="30" width="120" height="80" as="geometry" />
        </mxCell>
        <mxCell id="DFOY4-Ip_yTvPPJxsnzs-210" style="edgeStyle=orthogonalEdgeStyle;rounded=0;orthogonalLoop=1;jettySize=auto;html=1;entryX=0;entryY=0.5;entryDx=0;entryDy=0;" edge="1" parent="1" source="DFOY4-Ip_yTvPPJxsnzs-10" target="DFOY4-Ip_yTvPPJxsnzs-144">
          <mxGeometry relative="1" as="geometry">
            <Array as="points">
              <mxPoint x="120" y="2130" />
              <mxPoint x="120" y="700" />
            </Array>
          </mxGeometry>
        </mxCell>
        <mxCell id="DFOY4-Ip_yTvPPJxsnzs-211" style="edgeStyle=orthogonalEdgeStyle;rounded=0;orthogonalLoop=1;jettySize=auto;html=1;" edge="1" parent="1" source="DFOY4-Ip_yTvPPJxsnzs-24" target="DFOY4-Ip_yTvPPJxsnzs-43">
          <mxGeometry relative="1" as="geometry" />
        </mxCell>
        <mxCell id="DFOY4-Ip_yTvPPJxsnzs-212" style="edgeStyle=orthogonalEdgeStyle;rounded=0;orthogonalLoop=1;jettySize=auto;html=1;" edge="1" parent="1" source="DFOY4-Ip_yTvPPJxsnzs-24" target="DFOY4-Ip_yTvPPJxsnzs-60">
          <mxGeometry relative="1" as="geometry" />
        </mxCell>
        <mxCell id="DFOY4-Ip_yTvPPJxsnzs-213" style="edgeStyle=orthogonalEdgeStyle;rounded=0;orthogonalLoop=1;jettySize=auto;html=1;" edge="1" parent="1" source="DFOY4-Ip_yTvPPJxsnzs-24" target="DFOY4-Ip_yTvPPJxsnzs-64">
          <mxGeometry relative="1" as="geometry" />
        </mxCell>
        <mxCell id="DFOY4-Ip_yTvPPJxsnzs-214" style="edgeStyle=orthogonalEdgeStyle;rounded=0;orthogonalLoop=1;jettySize=auto;html=1;" edge="1" parent="1" source="DFOY4-Ip_yTvPPJxsnzs-24" target="DFOY4-Ip_yTvPPJxsnzs-66">
          <mxGeometry relative="1" as="geometry" />
        </mxCell>
        <mxCell id="DFOY4-Ip_yTvPPJxsnzs-216" style="edgeStyle=orthogonalEdgeStyle;rounded=0;orthogonalLoop=1;jettySize=auto;html=1;" edge="1" parent="1" source="DFOY4-Ip_yTvPPJxsnzs-10" target="DFOY4-Ip_yTvPPJxsnzs-158">
          <mxGeometry relative="1" as="geometry">
            <Array as="points">
              <mxPoint x="120" y="2130" />
              <mxPoint x="120" y="2400" />
            </Array>
          </mxGeometry>
        </mxCell>
        <mxCell id="DFOY4-Ip_yTvPPJxsnzs-217" style="edgeStyle=orthogonalEdgeStyle;rounded=0;orthogonalLoop=1;jettySize=auto;html=1;entryX=0.008;entryY=0.61;entryDx=0;entryDy=0;entryPerimeter=0;" edge="1" parent="1" source="DFOY4-Ip_yTvPPJxsnzs-10" target="DFOY4-Ip_yTvPPJxsnzs-160">
          <mxGeometry relative="1" as="geometry">
            <Array as="points">
              <mxPoint x="120" y="2130" />
              <mxPoint x="120" y="2575" />
            </Array>
          </mxGeometry>
        </mxCell>
        <mxCell id="DFOY4-Ip_yTvPPJxsnzs-218" style="edgeStyle=orthogonalEdgeStyle;rounded=0;orthogonalLoop=1;jettySize=auto;html=1;" edge="1" parent="1" source="DFOY4-Ip_yTvPPJxsnzs-10" target="DFOY4-Ip_yTvPPJxsnzs-162">
          <mxGeometry relative="1" as="geometry" />
        </mxCell>
        <mxCell id="DFOY4-Ip_yTvPPJxsnzs-219" style="edgeStyle=orthogonalEdgeStyle;rounded=0;orthogonalLoop=1;jettySize=auto;html=1;entryX=-0.004;entryY=0.627;entryDx=0;entryDy=0;entryPerimeter=0;" edge="1" parent="1" source="DFOY4-Ip_yTvPPJxsnzs-10" target="DFOY4-Ip_yTvPPJxsnzs-164">
          <mxGeometry relative="1" as="geometry" />
        </mxCell>
        <mxCell id="DFOY4-Ip_yTvPPJxsnzs-220" style="edgeStyle=orthogonalEdgeStyle;rounded=0;orthogonalLoop=1;jettySize=auto;html=1;entryX=-0.028;entryY=0.617;entryDx=0;entryDy=0;entryPerimeter=0;" edge="1" parent="1" source="DFOY4-Ip_yTvPPJxsnzs-10" target="DFOY4-Ip_yTvPPJxsnzs-147">
          <mxGeometry relative="1" as="geometry" />
        </mxCell>
        <mxCell id="DFOY4-Ip_yTvPPJxsnzs-221" style="edgeStyle=orthogonalEdgeStyle;rounded=0;orthogonalLoop=1;jettySize=auto;html=1;entryX=0;entryY=0.5;entryDx=0;entryDy=0;" edge="1" parent="1" source="DFOY4-Ip_yTvPPJxsnzs-10" target="DFOY4-Ip_yTvPPJxsnzs-171">
          <mxGeometry relative="1" as="geometry" />
        </mxCell>
        <mxCell id="DFOY4-Ip_yTvPPJxsnzs-222" style="edgeStyle=orthogonalEdgeStyle;rounded=0;orthogonalLoop=1;jettySize=auto;html=1;entryX=0;entryY=0.5;entryDx=0;entryDy=0;" edge="1" parent="1" source="DFOY4-Ip_yTvPPJxsnzs-10" target="DFOY4-Ip_yTvPPJxsnzs-176">
          <mxGeometry relative="1" as="geometry" />
        </mxCell>
        <mxCell id="DFOY4-Ip_yTvPPJxsnzs-223" style="edgeStyle=orthogonalEdgeStyle;rounded=0;orthogonalLoop=1;jettySize=auto;html=1;entryX=0;entryY=0.5;entryDx=0;entryDy=0;" edge="1" parent="1" source="DFOY4-Ip_yTvPPJxsnzs-10" target="DFOY4-Ip_yTvPPJxsnzs-188">
          <mxGeometry relative="1" as="geometry" />
        </mxCell>
        <mxCell id="DFOY4-Ip_yTvPPJxsnzs-224" style="edgeStyle=orthogonalEdgeStyle;rounded=0;orthogonalLoop=1;jettySize=auto;html=1;" edge="1" parent="1" source="DFOY4-Ip_yTvPPJxsnzs-10" target="DFOY4-Ip_yTvPPJxsnzs-155">
          <mxGeometry relative="1" as="geometry" />
        </mxCell>
        <mxCell id="DFOY4-Ip_yTvPPJxsnzs-225" style="edgeStyle=orthogonalEdgeStyle;rounded=0;orthogonalLoop=1;jettySize=auto;html=1;entryX=0;entryY=0.5;entryDx=0;entryDy=0;" edge="1" parent="1" source="DFOY4-Ip_yTvPPJxsnzs-10" target="DFOY4-Ip_yTvPPJxsnzs-153">
          <mxGeometry relative="1" as="geometry" />
        </mxCell>
        <mxCell id="DFOY4-Ip_yTvPPJxsnzs-226" style="edgeStyle=orthogonalEdgeStyle;rounded=0;orthogonalLoop=1;jettySize=auto;html=1;" edge="1" parent="1" source="DFOY4-Ip_yTvPPJxsnzs-10" target="DFOY4-Ip_yTvPPJxsnzs-151">
          <mxGeometry relative="1" as="geometry" />
        </mxCell>
        <mxCell id="DFOY4-Ip_yTvPPJxsnzs-228" style="edgeStyle=orthogonalEdgeStyle;rounded=0;orthogonalLoop=1;jettySize=auto;html=1;entryX=-0.051;entryY=0.248;entryDx=0;entryDy=0;entryPerimeter=0;" edge="1" parent="1" source="DFOY4-Ip_yTvPPJxsnzs-10" target="DFOY4-Ip_yTvPPJxsnzs-149">
          <mxGeometry relative="1" as="geometry" />
        </mxCell>
        <mxCell id="DFOY4-Ip_yTvPPJxsnzs-229" style="edgeStyle=orthogonalEdgeStyle;rounded=0;orthogonalLoop=1;jettySize=auto;html=1;exitX=1;exitY=0.5;exitDx=0;exitDy=0;entryX=0;entryY=0.5;entryDx=0;entryDy=0;" edge="1" parent="1" source="DFOY4-Ip_yTvPPJxsnzs-10" target="DFOY4-Ip_yTvPPJxsnzs-203">
          <mxGeometry relative="1" as="geometry" />
        </mxCell>
      </root>
    </mxGraphModel>
  </diagram>
</mxfile>
